<svg width="88" height="88" viewBox="0 0 88 88" fill="none" xmlns="http://www.w3.org/2000/svg">
<g clip-path="url(#clip0_1042_31431)">
<path d="M54.65 39.6165V36.2832H45.4001H36.1334H33.3V39.6165H36.1334H45.4001C47.4334 39.6165 49.1667 40.8999 49.8334 42.6999H33.3V46.0332H49.8334C49.1501 47.8332 47.4334 49.1165 45.4001 49.1165H38.95H36.1334H35.9167V52.4499H36.1334H37.5667L50.3667 65.2999L52.7334 62.9499L42.2667 52.4499H45.4001C49.2834 52.4499 52.5334 49.6832 53.3167 46.0332H54.6667V42.6999H53.3167C53.0834 41.5665 52.5834 40.5165 51.9167 39.6165H54.65Z" fill="#FD8A6D"/>
<path d="M4.1167 22.8667L6.93337 27.4833H9.0167V34H14.0167V66.9H9.80003V73.4H4.80003V83.2333H83.1334V73.4H78.1334V66.9H73.9167V34H78.9167V27.5H81.0334L83.85 22.8833L44 4.75L4.1167 22.8667ZM17.35 34H22.35V66.9H17.35V34ZM25.6834 34H62.2834V66.9H25.6834V34ZM79.8167 76.75V79.9167H8.15003V76.75H9.8167H78.1667H79.8167ZM74.8167 70.2333V73.4H13.1334V70.2333H14.0167H25.6834H62.2834H73.9334H74.8167ZM70.6 66.9H65.6167V34H70.6V66.9ZM75.6 30.6667H73.9334H62.2834H25.6834H14.0167H12.35V27.5H75.6V30.6667ZM9.35003 24.1667L44 8.41667L78.65 24.1667H9.35003Z" fill="#FD8A6D"/>
</g>
<g clip-path="url(#clip1_1042_31431)" filter="url(#filter0_f_1042_31431)">
<path d="M54.65 39.6165V36.2832H45.4001H36.1334H33.3V39.6165H36.1334H45.4001C47.4334 39.6165 49.1667 40.8999 49.8334 42.6999H33.3V46.0332H49.8334C49.1501 47.8332 47.4334 49.1165 45.4001 49.1165H38.95H36.1334H35.9167V52.4499H36.1334H37.5667L50.3667 65.2999L52.7334 62.9499L42.2667 52.4499H45.4001C49.2834 52.4499 52.5334 49.6832 53.3167 46.0332H54.6667V42.6999H53.3167C53.0834 41.5665 52.5834 40.5165 51.9167 39.6165H54.65Z" fill="#FD8A6D"/>
<path d="M4.1167 22.8667L6.93337 27.4833H9.0167V34H14.0167V66.9H9.80003V73.4H4.80003V83.2333H83.1334V73.4H78.1334V66.9H73.9167V34H78.9167V27.5H81.0334L83.85 22.8833L44 4.75L4.1167 22.8667ZM17.35 34H22.35V66.9H17.35V34ZM25.6834 34H62.2834V66.9H25.6834V34ZM79.8167 76.75V79.9167H8.15003V76.75H9.8167H78.1667H79.8167ZM74.8167 70.2333V73.4H13.1334V70.2333H14.0167H25.6834H62.2834H73.9334H74.8167ZM70.6 66.9H65.6167V34H70.6V66.9ZM75.6 30.6667H73.9334H62.2834H25.6834H14.0167H12.35V27.5H75.6V30.6667ZM9.35003 24.1667L44 8.41667L78.65 24.1667H9.35003Z" fill="#FD8A6D"/>
</g>
<defs>
<filter id="filter0_f_1042_31431" x="0" y="0" width="88" height="88" filterUnits="userSpaceOnUse" color-interpolation-filters="sRGB">
<feFlood flood-opacity="0" result="BackgroundImageFix"/>
<feBlend mode="normal" in="SourceGraphic" in2="BackgroundImageFix" result="shape"/>
<feGaussianBlur stdDeviation="2" result="effect1_foregroundBlur_1042_31431"/>
</filter>
<clipPath id="clip0_1042_31431">
<rect width="80" height="80" fill="white" transform="translate(4 4)"/>
</clipPath>
<clipPath id="clip1_1042_31431">
<rect width="80" height="80" fill="white" transform="translate(4 4)"/>
</clipPath>
</defs>
</svg>
