<svg xmlns="http://www.w3.org/2000/svg" width="68" height="68" fill="none" viewBox="0 0 68 68" preserveAspectRatio="xMidYMid meet"><path fill="#FD8A6D" d="M16.196 8.343v-2.36a1.063 1.063 0 0 1 2.125 0v2.36a1.063 1.063 0 1 1-2.125 0M8.78 10.9a1.062 1.062 0 1 0 1.84-1.063L9.44 7.793A1.062 1.062 0 1 0 7.6 8.855zm-4.082 4.08L2.654 13.8a1.062 1.062 0 1 0-1.063 1.84l2.045 1.18a1.062 1.062 0 1 0 1.063-1.84m19.588-3.693a1.063 1.063 0 0 0 1.451-.389l1.18-2.044a1.063 1.063 0 0 0-1.84-1.062l-1.18 2.044a1.063 1.063 0 0 0 .39 1.451m6.066 5.676c.18 0 .362-.046.53-.142l2.044-1.18a1.062 1.062 0 0 0-1.062-1.84l-2.045 1.18a1.062 1.062 0 0 0 .533 1.982m25.686 23.85a2.69 2.69 0 0 1-.029 2.771 2.69 2.69 0 0 1-2.441 1.312c-4.432-.182-8.764-.23-12.946 1.054l4.342 7.521a1.06 1.06 0 0 1-.389 1.451l-.91.526a4.04 4.04 0 0 1-3.087.404 4.04 4.04 0 0 1-2.47-1.893l-2.957-5.12-.543.313-.045.025a3.54 3.54 0 0 1-2.091 2.51l-.002.001 2.54 5.898a1.062 1.062 0 0 1-1.19 1.461l-3.379-.692-1.82 2.932a1.063 1.063 0 0 1-1.878-.14l-2.267-5.265-.191-.059c-.82-.252-1.23-.38-1.531-.38-.212 0-.479.064-.903.189l-3.18 6.832a1.063 1.063 0 0 1-1.883.085l-1.733-2.983-3.399.594a1.062 1.062 0 0 1-1.146-1.495l3.129-6.721q-.273-.114-.603-.256a3.56 3.56 0 0 1-2.15-3.724l.09-.738c.107-.85.16-1.278.108-1.574s-.248-.68-.64-1.442l-.337-.662a3.56 3.56 0 0 1 .746-4.235l.401-.374a2.69 2.69 0 0 1-1.042-2.122v-1.594c-.246-4.116-1.266-5.86-2.253-7.547-.918-1.569-1.784-3.05-1.784-5.925 0-6.111 4.972-11.084 11.084-11.084s11.084 4.973 11.084 11.084c0 2.875-.867 4.357-1.784 5.925-.574.98-1.164 1.99-1.605 3.494l.543.41c.683.517 1.026.777 1.31.88.282.103.712.125 1.568.167q.329.016.742.039a3.56 3.56 0 0 1 3.272 2.684l.57-.329c2.986-2.686 5.204-6.53 7.164-9.924.373-.647.727-1.258 1.082-1.859a2.7 2.7 0 0 1 2.342-1.335h.016a2.7 2.7 0 0 1 2.343 1.362l3.057 5.295a4.3 4.3 0 0 1 5.034 1.94c.573.993.726 2.15.429 3.258a4.26 4.26 0 0 1-1.266 2.072zM50.077 30.49l1.97 3.411a2.17 2.17 0 0 0 .11-2.338 2.17 2.17 0 0 0-2.08-1.073M33.546 47.313l4.056-2.342-4.406-7.632-4.057 2.342a4.41 4.41 0 0 0-1.613 6.02 4.37 4.37 0 0 0 2.678 2.046 4.37 4.37 0 0 0 3.342-.434m-7.133-8.099a5.46 5.46 0 0 0-3.66-1.397 5.494 5.494 0 0 0-5.487 5.488 5.494 5.494 0 0 0 5.488 5.487 5.5 5.5 0 0 0 3.47-1.238 7 7 0 0 1-.538-.791c-1.428-2.474-1.047-5.503.727-7.549m23.09 3.462-8.541-14.793c-1.677 2.85-3.582 5.833-6.034 8.206l4.606 7.977c3.294-1.086 6.61-1.381 9.969-1.39M9.793 26.603c.935 1.6 2.083 3.56 2.465 7.524h1.432c.218-.299.48-.56.776-.776v-8.134h-1.267a3.395 3.395 0 0 1-3.391-3.391 3.395 3.395 0 0 1 3.391-3.391 3.395 3.395 0 0 1 3.391 3.391v1.266h1.337v-1.266a3.395 3.395 0 0 1 3.391-3.391 3.395 3.395 0 0 1 3.391 3.391 3.395 3.395 0 0 1-3.39 3.391h-1.267v6.332q.246-.187.552-.416a3.57 3.57 0 0 1 2.357-.714c.507-1.665 1.169-2.798 1.764-3.815.834-1.426 1.493-2.553 1.493-4.852 0-4.94-4.02-8.959-8.96-8.959S8.3 16.813 8.3 21.753c0 2.298.66 3.424 1.494 4.85m3.114 9.65h-.57v.565c0 .212.126.4.303.496.079-.245.157-.58.267-1.062m1.559-14.427a1.268 1.268 0 0 0-2.533 0c0 .698.568 1.266 1.266 1.266h1.267zm3.46 3.391h-1.335v7.439l.541-.028c.32-.016.58-.029.795-.044zm3.392-2.125a1.268 1.268 0 0 0 0-2.533c-.698 0-1.266.569-1.266 1.267v1.266zm-2.07 33.098a3.56 3.56 0 0 1-2.777-1.618l-.405-.625a21 21 0 0 0-.597-.897l-2.173 4.667 2.123-.37a1.06 1.06 0 0 1 1.101.512l1.083 1.863zm5.663-2.396.7.214a1.435 1.435 0 0 0 1.647-.6q.222-.34.398-.613c1.168-1.809 1.322-1.938 3.306-2.774l.017-.007a6.64 6.64 0 0 1-3.166-1.025 7.6 7.6 0 0 1-5.06 1.928c-4.197 0-7.612-3.415-7.612-7.613 0-4.197 3.415-7.612 7.612-7.612 2.01 0 3.895.777 5.308 2.158l.016-.01 2.391-1.38-.126-.545A1.434 1.434 0 0 0 29 34.788l-.73-.038c-2.15-.107-2.34-.176-4.056-1.476l-.584-.44a1.435 1.435 0 0 0-1.753 0l-.584.44c-1.716 1.3-1.905 1.37-4.055 1.476l-.73.038a1.434 1.434 0 0 0-1.343 1.127l-.164.712c-.48 2.1-.58 2.274-2.158 3.738q-.239.22-.535.498a1.435 1.435 0 0 0-.305 1.727l.332.651c.983 1.916 1.018 2.114.75 4.25l-.09.726c-.079.66.266 1.256.877 1.518l.673.286c1.984.836 2.139.965 3.306 2.774l.398.613c.364.557 1.01.792 1.648.6l.699-.214c2.057-.635 2.258-.635 4.315 0m7.342 2.764-1.723-4a1.4 1.4 0 0 0-.16.115c-.23.193-.464.554-.93 1.275q-.177.277-.404.624a3.57 3.57 0 0 1-2.154 1.527l1.007 2.338 1.137-1.83c.234-.379.68-.57 1.116-.481zm10.34-2.944-3.928-6.803-1.674.967 2.957 5.12a1.93 1.93 0 0 0 1.18.903c.5.134 1.02.067 1.465-.187m11.604-11.737L44.066 24.328a.56.56 0 0 0-.515-.299h-.004a.56.56 0 0 0-.514.293q-.413.698-.84 1.442l9.785 16.95q.836.024 1.677.06a.56.56 0 0 0 .536-.289.56.56 0 0 0 .006-.608m10.906-17.79c-1.97-3.412-5.269-5.779-9.29-6.664a1.063 1.063 0 0 0-.456 2.075c3.43.755 6.238 2.763 7.906 5.652 1.669 2.89 2.003 6.325.942 9.673a1.062 1.062 0 1 0 2.026.642c1.243-3.924.843-7.965-1.128-11.377M53.381 25.1a1.063 1.063 0 0 0-.457 2.076c1.33.292 2.416 1.066 3.058 2.179.643 1.112.77 2.44.358 3.738a1.062 1.062 0 1 0 2.026.642c.594-1.874.4-3.807-.544-5.443s-2.521-2.769-4.44-3.192m1.217-3.838a1.062 1.062 0 1 0-.457 2.075c2.38.524 4.326 1.915 5.482 3.916 1.155 2.001 1.386 4.383.65 6.706a1.063 1.063 0 1 0 2.025.641c.92-2.898.622-5.885-.835-8.41-1.457-2.524-3.896-4.274-6.865-4.928"/><g clip-path="url(#a)" filter="url(#b)"><path fill="#FD8A6D" d="M16.136 8.423v-2.36a1.063 1.063 0 0 1 2.125 0v2.36a1.063 1.063 0 1 1-2.125 0M8.72 10.98a1.062 1.062 0 1 0 1.84-1.063L9.38 7.873a1.062 1.062 0 1 0-1.84 1.062zm-4.082 4.082-2.044-1.18a1.062 1.062 0 1 0-1.063 1.84l2.045 1.18a1.062 1.062 0 0 0 1.063-1.84m19.588-3.693a1.063 1.063 0 0 0 1.452-.389l1.18-2.045a1.062 1.062 0 1 0-1.84-1.062l-1.18 2.044a1.063 1.063 0 0 0 .388 1.451m6.066 5.675c.18 0 .363-.046.53-.142l2.044-1.18a1.063 1.063 0 0 0-1.062-1.84l-2.045 1.18a1.062 1.062 0 0 0 .533 1.982m25.686 23.85a2.69 2.69 0 0 1-.029 2.771 2.69 2.69 0 0 1-2.441 1.312c-4.432-.182-8.764-.23-12.946 1.054l4.342 7.521c.294.508.12 1.158-.389 1.452l-.91.525a4.04 4.04 0 0 1-3.086.404 4.04 4.04 0 0 1-2.471-1.892l-2.956-5.121-.543.313-.046.025a3.54 3.54 0 0 1-2.093 2.511l2.54 5.898a1.063 1.063 0 0 1-1.189 1.461l-3.38-.692-1.819 2.932a1.063 1.063 0 0 1-1.879-.14l-2.267-5.265-.19-.059c-.82-.252-1.231-.38-1.532-.38-.212 0-.479.064-.903.19l-3.18 6.83a1.063 1.063 0 0 1-1.882.086l-1.734-2.983-3.399.594a1.062 1.062 0 0 1-1.146-1.495l3.13-6.721q-.274-.114-.604-.256a3.56 3.56 0 0 1-2.15-3.724l.09-.738c.107-.85.16-1.278.109-1.574-.053-.296-.249-.68-.64-1.442l-.338-.662a3.56 3.56 0 0 1 .747-4.234l.4-.375a2.69 2.69 0 0 1-1.041-2.122v-1.594c-.247-4.116-1.267-5.86-2.254-7.547-.917-1.569-1.784-3.05-1.784-5.925 0-6.111 4.972-11.084 11.084-11.084s11.084 4.973 11.084 11.085c0 2.875-.867 4.356-1.784 5.924-.574.98-1.164 1.99-1.605 3.494l.543.41c.684.517 1.027.777 1.31.88.282.103.712.125 1.568.167q.33.016.743.039a3.56 3.56 0 0 1 3.272 2.684l.569-.328c2.986-2.687 5.205-6.53 7.164-9.925.374-.647.727-1.259 1.082-1.859a2.7 2.7 0 0 1 2.342-1.334h.016a2.7 2.7 0 0 1 2.343 1.361l3.057 5.295a4.3 4.3 0 0 1 5.034 1.94c.573.993.726 2.15.429 3.258a4.26 4.26 0 0 1-1.266 2.072zM50.017 30.57l1.97 3.411a2.17 2.17 0 0 0 .11-2.338 2.17 2.17 0 0 0-2.08-1.073M33.486 47.393l4.057-2.342-4.407-7.632-4.057 2.342a4.41 4.41 0 0 0-1.613 6.02 4.38 4.38 0 0 0 2.678 2.046 4.37 4.37 0 0 0 3.342-.434m-7.133-8.099a5.45 5.45 0 0 0-3.66-1.397 5.494 5.494 0 0 0-5.487 5.488 5.494 5.494 0 0 0 5.488 5.487 5.48 5.48 0 0 0 3.47-1.238 7 7 0 0 1-.538-.791c-1.428-2.474-1.047-5.503.727-7.549m23.09 3.462-8.54-14.793c-1.677 2.85-3.583 5.833-6.034 8.206l4.605 7.977c3.294-1.086 6.61-1.38 9.969-1.39M9.733 26.683c.936 1.6 2.083 3.56 2.465 7.524h1.432c.218-.299.48-.56.776-.776v-8.133h-1.267a3.395 3.395 0 0 1-3.391-3.392 3.395 3.395 0 0 1 3.391-3.391 3.395 3.395 0 0 1 3.392 3.391v1.267h1.336v-1.267a3.395 3.395 0 0 1 3.391-3.391 3.395 3.395 0 0 1 3.392 3.391 3.395 3.395 0 0 1-3.392 3.392h-1.266v6.331l.552-.416A3.57 3.57 0 0 1 22.9 30.5c.508-1.666 1.169-2.799 1.764-3.816.834-1.426 1.493-2.553 1.493-4.852 0-4.94-4.02-8.959-8.96-8.959s-8.958 4.02-8.958 8.96c0 2.298.659 3.425 1.493 4.85m3.114 9.65h-.57v.565c0 .212.126.4.304.496.078-.245.156-.58.266-1.062m1.559-14.427a1.268 1.268 0 0 0-2.533 0c0 .698.568 1.267 1.267 1.267h1.266zm3.461 3.391H16.53v7.439l.542-.028c.319-.016.579-.029.794-.044zm3.392-2.125c.698 0 1.266-.568 1.266-1.266a1.268 1.268 0 0 0-2.533 0v1.266zm-2.07 33.099a3.56 3.56 0 0 1-2.777-1.618l-.405-.624a21 21 0 0 0-.597-.898l-2.173 4.667 2.123-.37a1.06 1.06 0 0 1 1.101.512l1.083 1.863zm5.664-2.396.699.214a1.435 1.435 0 0 0 1.647-.6q.222-.34.398-.613c1.168-1.809 1.322-1.938 3.306-2.774l.017-.007a6.6 6.6 0 0 1-3.166-1.024 7.6 7.6 0 0 1-5.06 1.927c-4.197 0-7.612-3.415-7.612-7.612 0-4.198 3.415-7.613 7.613-7.613 2.008 0 3.894.777 5.308 2.158l.015-.01 2.392-1.38-.126-.545a1.434 1.434 0 0 0-1.343-1.127l-.73-.038c-2.15-.107-2.34-.176-4.056-1.476l-.584-.44a1.435 1.435 0 0 0-1.753 0l-.583.44c-1.717 1.3-1.906 1.37-4.056 1.476l-.73.038a1.434 1.434 0 0 0-1.343 1.127l-.164.712c-.48 2.1-.58 2.274-2.158 3.738l-.535.499a1.435 1.435 0 0 0-.305 1.726q.184.362.333.651c.982 1.916 1.017 2.114.75 4.25q-.042.323-.09.726c-.08.66.265 1.256.876 1.518l.673.286c1.984.836 2.139.965 3.307 2.774q.175.273.398.613c.364.557 1.01.792 1.647.6l.7-.214c2.056-.635 2.258-.635 4.315 0m7.341 2.764-1.722-4a1.4 1.4 0 0 0-.16.115c-.231.193-.465.555-.93 1.275l-.404.624a3.57 3.57 0 0 1-2.154 1.527l1.007 2.338 1.136-1.83c.235-.379.68-.57 1.116-.481zm10.34-2.944-3.928-6.803-1.673.967 2.956 5.12c.258.448.678.768 1.18.903.5.134 1.02.068 1.465-.187m11.605-11.737L44.006 24.408a.56.56 0 0 0-.515-.299h-.004a.56.56 0 0 0-.513.293c-.277.467-.554.945-.841 1.442l9.785 16.95q.837.024 1.677.06a.56.56 0 0 0 .536-.288.56.56 0 0 0 .007-.61m10.906-17.79c-1.97-3.412-5.27-5.779-9.29-6.664a1.063 1.063 0 0 0-.457 2.075c3.43.756 6.238 2.763 7.907 5.652s2.002 6.325.941 9.673a1.062 1.062 0 1 0 2.026.642c1.243-3.924.843-7.965-1.127-11.377M53.32 25.18a1.063 1.063 0 0 0-.457 2.076c1.33.292 2.416 1.066 3.058 2.179.643 1.113.77 2.44.359 3.738a1.062 1.062 0 1 0 2.025.642c.594-1.874.401-3.807-.543-5.442s-2.522-2.77-4.442-3.193m1.217-3.838a1.062 1.062 0 1 0-.457 2.075c2.38.524 4.327 1.915 5.482 3.916s1.386 4.383.65 6.706a1.062 1.062 0 1 0 2.026.642c.918-2.9.622-5.886-.836-8.41s-3.895-4.275-6.865-4.929"/></g><defs><clipPath id="a"><path fill="#fff" d="M0 0h68v68H0z"/></clipPath><filter id="b" width="69.28" height="61.558" x="-.7" y="3.3" color-interpolation-filters="sRGB" filterUnits="userSpaceOnUse"><feFlood flood-opacity="0" result="BackgroundImageFix"/><feBlend in="SourceGraphic" in2="BackgroundImageFix" result="shape"/><feGaussianBlur result="effect1_foregroundBlur_1038_30980" stdDeviation=".85"/></filter></defs></svg>