<svg width="68" height="68" viewBox="0 0 68 68" fill="none" xmlns="http://www.w3.org/2000/svg">
<g filter="url(#filter0_f_974_32407)">
<path d="M54.1875 8.5H26.5625C23.6334 8.5 21.25 10.8823 21.25 13.8125V21.25H13.8125C10.8834 21.25 8.5 23.6323 8.5 26.5625V45.6875C8.5 47.1214 9.05926 48.4558 10.0543 49.4249C10.7941 50.1844 11.7269 50.6887 12.75 50.8942V58.4375C12.75 58.8671 13.0084 59.2551 13.4058 59.4191C13.5375 59.473 13.6755 59.5 13.8125 59.5C14.0885 59.5 14.3603 59.3921 14.5637 59.1887L22.7524 51H41.4375C44.3666 51 46.75 48.6177 46.75 45.6875V39.7524L53.4363 46.4387C53.6397 46.6421 53.9115 46.75 54.1875 46.75C54.3245 46.75 54.4625 46.723 54.5942 46.6691C54.9916 46.5051 55.25 46.1171 55.25 45.6875V38.1442C57.6718 37.6503 59.5 35.5025 59.5 32.9375V13.8125C59.5 10.8823 57.1166 8.5 54.1875 8.5ZM41.4375 48.875H22.3125C22.0303 48.875 21.7605 48.9871 21.5613 49.1863L14.875 55.8726V49.9375C14.875 49.3502 14.3998 48.875 13.8125 48.875C12.9565 48.875 12.1627 48.543 11.5578 47.9225C10.956 47.3373 10.625 46.5425 10.625 45.6875V26.5625C10.625 24.8048 12.0548 23.375 13.8125 23.375H21.25V32.9375C21.25 35.8677 23.6334 38.25 26.5625 38.25H44.625V45.6875C44.625 47.4452 43.1952 48.875 41.4375 48.875ZM57.375 32.9375C57.375 34.6952 55.9452 36.125 54.1875 36.125C53.6002 36.125 53.125 36.6002 53.125 37.1875V43.1226L46.44 36.4376C46.3425 36.3398 46.226 36.2614 46.0965 36.2075C45.9682 36.1539 45.8295 36.125 45.6875 36.125H26.5625C24.8048 36.125 23.375 34.6952 23.375 32.9375V13.8125C23.375 12.0548 24.8048 10.625 26.5625 10.625H54.1875C55.9452 10.625 57.375 12.0548 57.375 13.8125V32.9375Z" fill="#FD8A6D"/>
<path d="M41.2341 13.1879C41.2212 13.1701 41.199 13.1644 41.185 13.1478C40.9903 12.9104 40.7064 12.75 40.375 12.75C40.0436 12.75 39.7598 12.9104 39.565 13.1478C39.551 13.1644 39.5288 13.1701 39.5159 13.1879L33.3048 21.7294C33.0817 22.0365 33.0392 22.4391 33.1928 22.7856L36.1312 29.3971L34.7087 33.6638C34.5997 33.9875 34.6547 34.3445 34.854 34.6205C35.0542 34.8986 35.3748 35.0625 35.7162 35.0625H45.0338C45.3752 35.0625 45.6958 34.8986 45.8961 34.6205C46.0953 34.3445 46.1503 33.9875 46.0413 33.6638L44.6188 29.3971L47.5573 22.7856C47.7108 22.4391 47.6683 22.0365 47.4452 21.7294L41.2341 13.1879ZM40.8658 23.1301C40.8658 23.6697 39.8842 23.6697 39.8842 23.1301C39.8842 22.8604 40.1042 22.6404 40.375 22.6404C40.6458 22.6404 40.8658 22.8603 40.8658 23.1301ZM37.1906 32.9375L38.0349 30.4037H42.715L43.5594 32.9375H37.1906ZM42.7905 28.2787H37.9595L35.3842 22.4827L39.3125 17.0809V20.7517C38.4012 21.1608 37.7592 22.0681 37.7592 23.1301C37.7592 24.5724 38.9327 25.7449 40.375 25.7449C41.8173 25.7449 42.9908 24.5724 42.9908 23.1301C42.9908 22.068 42.3489 21.1605 41.4375 20.7516V17.0809L45.3658 22.4827L42.7905 28.2787Z" fill="#FD8A6D"/>
</g>
<path d="M54.1875 8.5H26.5625C23.6334 8.5 21.25 10.8823 21.25 13.8125V21.25H13.8125C10.8834 21.25 8.5 23.6323 8.5 26.5625V45.6875C8.5 47.1214 9.05926 48.4558 10.0543 49.4249C10.7941 50.1844 11.7269 50.6887 12.75 50.8942V58.4375C12.75 58.8671 13.0084 59.2551 13.4058 59.4191C13.5375 59.473 13.6755 59.5 13.8125 59.5C14.0885 59.5 14.3603 59.3921 14.5637 59.1887L22.7524 51H41.4375C44.3666 51 46.75 48.6177 46.75 45.6875V39.7524L53.4363 46.4387C53.6397 46.6421 53.9115 46.75 54.1875 46.75C54.3245 46.75 54.4625 46.723 54.5942 46.6691C54.9916 46.5051 55.25 46.1171 55.25 45.6875V38.1442C57.6718 37.6503 59.5 35.5025 59.5 32.9375V13.8125C59.5 10.8823 57.1166 8.5 54.1875 8.5ZM41.4375 48.875H22.3125C22.0303 48.875 21.7605 48.9871 21.5613 49.1863L14.875 55.8726V49.9375C14.875 49.3502 14.3998 48.875 13.8125 48.875C12.9565 48.875 12.1627 48.543 11.5578 47.9225C10.956 47.3373 10.625 46.5425 10.625 45.6875V26.5625C10.625 24.8048 12.0548 23.375 13.8125 23.375H21.25V32.9375C21.25 35.8677 23.6334 38.25 26.5625 38.25H44.625V45.6875C44.625 47.4452 43.1952 48.875 41.4375 48.875ZM57.375 32.9375C57.375 34.6952 55.9452 36.125 54.1875 36.125C53.6002 36.125 53.125 36.6002 53.125 37.1875V43.1226L46.44 36.4376C46.3425 36.3398 46.226 36.2614 46.0965 36.2075C45.9682 36.1539 45.8295 36.125 45.6875 36.125H26.5625C24.8048 36.125 23.375 34.6952 23.375 32.9375V13.8125C23.375 12.0548 24.8048 10.625 26.5625 10.625H54.1875C55.9452 10.625 57.375 12.0548 57.375 13.8125V32.9375Z" fill="#FD8A6D"/>
<path d="M41.2341 13.1879C41.2212 13.1701 41.199 13.1644 41.185 13.1478C40.9903 12.9104 40.7064 12.75 40.375 12.75C40.0436 12.75 39.7598 12.9104 39.565 13.1478C39.551 13.1644 39.5288 13.1701 39.5159 13.1879L33.3048 21.7294C33.0817 22.0365 33.0392 22.4391 33.1928 22.7856L36.1312 29.3971L34.7087 33.6638C34.5997 33.9875 34.6547 34.3445 34.854 34.6205C35.0542 34.8986 35.3748 35.0625 35.7162 35.0625H45.0338C45.3752 35.0625 45.6958 34.8986 45.8961 34.6205C46.0953 34.3445 46.1503 33.9875 46.0413 33.6638L44.6188 29.3971L47.5573 22.7856C47.7108 22.4391 47.6683 22.0365 47.4452 21.7294L41.2341 13.1879ZM40.8658 23.1301C40.8658 23.6697 39.8842 23.6697 39.8842 23.1301C39.8842 22.8604 40.1042 22.6404 40.375 22.6404C40.6458 22.6404 40.8658 22.8603 40.8658 23.1301ZM37.1906 32.9375L38.0349 30.4037H42.715L43.5594 32.9375H37.1906ZM42.7905 28.2787H37.9595L35.3842 22.4827L39.3125 17.0809V20.7517C38.4012 21.1608 37.7592 22.0681 37.7592 23.1301C37.7592 24.5724 38.9327 25.7449 40.375 25.7449C41.8173 25.7449 42.9908 24.5724 42.9908 23.1301C42.9908 22.068 42.3489 21.1605 41.4375 20.7516V17.0809L45.3658 22.4827L42.7905 28.2787Z" fill="#FD8A6D"/>
<defs>
<filter id="filter0_f_974_32407" x="-2.2" y="-2.2" width="72.4" height="72.4" filterUnits="userSpaceOnUse" color-interpolation-filters="sRGB">
<feFlood flood-opacity="0" result="BackgroundImageFix"/>
<feBlend mode="normal" in="SourceGraphic" in2="BackgroundImageFix" result="shape"/>
<feGaussianBlur stdDeviation="1.1" result="effect1_foregroundBlur_974_32407"/>
</filter>
</defs>
</svg>
