<svg xmlns="http://www.w3.org/2000/svg" width="70" height="70" fill="none" viewBox="0 0 70 70" preserveAspectRatio="xMidYMid meet"><g filter="url(#a)"><path fill="#FD8A6D" d="M18.094 47.899a6.23 6.23 0 0 0-6.223-6.223 6.23 6.23 0 0 0-6.223 6.223 6.23 6.23 0 0 0 6.223 6.223 6.23 6.23 0 0 0 6.223-6.223m-6.223 4.098A4.103 4.103 0 0 1 7.773 47.9a4.103 4.103 0 0 1 4.098-4.098 4.103 4.103 0 0 1 4.098 4.098 4.103 4.103 0 0 1-4.098 4.098M35 21.357c-6.722 0-12.19 5.47-12.19 12.191s5.468 12.19 12.19 12.19 12.19-5.468 12.19-12.19-5.468-12.19-12.19-12.19m-6.591 19.789a6.69 6.69 0 0 1 6.589-5.462h.005a6.69 6.69 0 0 1 6.589 5.462A10.02 10.02 0 0 1 35 43.614a10.02 10.02 0 0 1-6.591-2.468m3.725-10.454A2.87 2.87 0 0 1 35 27.827a2.87 2.87 0 0 1 2.867 2.866A2.87 2.87 0 0 1 35 33.56a2.87 2.87 0 0 1-2.866-2.866m11.135 8.586a8.8 8.8 0 0 0-4.791-5.01 4.98 4.98 0 0 0 1.514-3.576A4.997 4.997 0 0 0 35 25.702a4.997 4.997 0 0 0-4.991 4.991c0 1.401.58 2.669 1.513 3.576a8.8 8.8 0 0 0-4.791 5.01 10 10 0 0 1-1.797-5.73c0-5.55 4.516-10.065 10.066-10.065s10.066 4.515 10.066 10.065a10 10 0 0 1-1.797 5.73m23.83.934-1.11-.239a1.062 1.062 0 0 0-1.312-1.312l-.24-1.11a1.06 1.06 0 0 0-.64-.759v-12.81h3.078a1.063 1.063 0 0 0 0-2.126h-.36V8.64c0-.587-.477-1.062-1.063-1.062h-2.904c-.587 0-1.062.475-1.062 1.062v7.665a5 5 0 0 0-.363-.228v-4.695c0-.587-.476-1.063-1.063-1.063h-2.387A53 53 0 0 0 64.1 5.73a1.062 1.062 0 0 0 2.07-.15l.334-2.3a1.063 1.063 0 0 0-1.109-1.215l-2.322.126a1.063 1.063 0 0 0-.442 1.998c-4.845 4.022-10.522 7.181-16.912 9.407a1.062 1.062 0 0 0-.39 1.767H28.655V8.795A2.96 2.96 0 0 0 25.7 5.84h-3.868v-.823a2.96 2.96 0 0 0-2.955-2.954H5.017a2.96 2.96 0 0 0-2.955 2.955v9.484a2.96 2.96 0 0 0 2.955 2.954h.54v2.793c0 .426.255.81.646.976v18.858a2.88 2.88 0 0 0-1.664 2.001l-.122.53c-.129.565-.2.875-.288 1.028s-.322.37-.746.763l-.398.371a2.886 2.886 0 0 0-.605 3.43l.247.486c.264.514.41.798.44.972s-.009.49-.08 1.064l-.067.54a2.886 2.886 0 0 0 1.742 3.017l.168.071-2.16 4.639a1.063 1.063 0 0 0 1.146 1.495l2.286-.4 1.165 2.006a1.063 1.063 0 0 0 1.882-.085l2.267-4.87c.208-.059.353-.09.455-.09.176 0 .48.093 1.033.264l.013.004 1.603 3.723a1.062 1.062 0 0 0 1.683.37c-.691.692-1.11 1.584-1.11 2.557v2.906c0 .587.476 1.063 1.063 1.063h37.688c.587 0 1.063-.476 1.063-1.063V63.97c0-2.188-2.108-3.968-4.7-3.968H44.78v-4.65h2.194a10.33 10.33 0 0 0 8.368 4.277c5.702 0 10.341-4.64 10.341-10.341 0-1.515-.334-3.01-.97-4.372l2.914-2.913a1.062 1.062 0 0 0-.527-1.79m-6.858 9.076c0 2.702-2.198 4.9-4.9 4.9a4.905 4.905 0 0 1-4.9-4.9c0-2.702 2.198-4.9 4.9-4.9a4.87 4.87 0 0 1 2.642.776l-.867.868a3.7 3.7 0 0 0-1.775-.453 3.713 3.713 0 0 0-3.708 3.709 3.713 3.713 0 0 0 3.708 3.709 3.713 3.713 0 0 0 3.71-3.71c0-.63-.16-1.225-.44-1.746l.87-.87c.48.758.76 1.656.76 2.617m-14.716-3.244H21.549a2.9 2.9 0 0 0-.793-1.268l-.398-.37c-.424-.394-.657-.611-.746-.764s-.159-.463-.287-1.027l-.123-.531a2.886 2.886 0 0 0-2.668-2.239l-.544-.028c-.578-.03-.896-.045-1.062-.105s-.42-.253-.88-.602l-.436-.328a2.9 2.9 0 0 0-1.718-.584V21.234h.485v2.792a1.062 1.062 0 0 0 1.828.736l3.39-3.528H25.7c.357 0 .7-.064 1.018-.181H45.31v.803h-.36a1.063 1.063 0 0 0 0 2.125h13.156v15.343a10.4 10.4 0 0 0-2.765-.377c-4.568 0-8.452 2.98-9.816 7.097M8.328 20.003l.722-.752c.153.437.405.827.73 1.144a2 2 0 0 0-.011.187v18.471l-.075.056c-.46.35-.715.542-.88.602-.1.037-.255.057-.486.073zm42.374-2.516v1.44h-.363v-1.44zm10.97 6.494V38l-1.44 1.44V23.982zm-5.941-2.125v-.803h.363v.803zm.363-2.928h-.363v-1.441h.363zm-2.488 2.928h-.779v-6.364h.779zm-3.267 0v-.803h.363v.803zm-2.904-3.445h.779v3.445h-.779zm9.49 30.877c0 .873-.71 1.584-1.584 1.584-.873 0-1.584-.71-1.584-1.584 0-.873.711-1.584 1.584-1.584q.05.001.097.005l-.838.838a1.063 1.063 0 0 0 1.503 1.503l.819-.82zm4.029-7.094-.084-.387 1.902-1.901.083.387zm3.435-32.491v12.153h-.778V9.702zm-2.903 9.915v2.238h-.363v-2.95q.226.333.363.712m-3.267-7.174h.779v9.412h-.78zm-2.125-1.062v3.98h-.363v-.933c0-.586-.476-1.062-1.063-1.062h-2.712a57 57 0 0 0 4.148-2.126 1 1 0 0 0-.01.14m-5.22 2.469a1.06 1.06 0 0 0-.172.579v.932h-3.623q1.942-.7 3.795-1.511m-5.564 3.636v1.44H28.582q.071-.313.072-.648v-.792zM25.7 7.965a.83.83 0 0 1 .83.83v9.484a.83.83 0 0 1-.83.83h-8.556c-.29 0-.566.118-.766.326l-1.874 1.951v-1.214c0-.587-.476-1.063-1.063-1.063H11.84a.83.83 0 0 1-.83-.83v-.823h7.867a2.94 2.94 0 0 0 1.798-.611h2.777a1.063 1.063 0 0 0 0-2.125h-1.629q.008-.108.009-.218v-2.284h1.62a1.063 1.063 0 0 0 0-2.125h-1.62V7.965zM5.017 15.331a.83.83 0 0 1-.83-.83V5.019a.83.83 0 0 1 .83-.83h13.86a.83.83 0 0 1 .83.83v9.484a.83.83 0 0 1-.83.83h-8.555c-.29 0-.566.117-.767.326l-.16.166a1.1 1.1 0 0 0-.378.394l-1.336 1.39v-1.214c0-.587-.476-1.062-1.062-1.062zM8.082 59.27l-.515-.886a1.06 1.06 0 0 0-1.102-.513l-1.01.177 1.142-2.451.15.23.296.458a2.9 2.9 0 0 0 1.842 1.258zm2.128-3.984-.508.156a.76.76 0 0 1-.88-.32q-.163-.249-.29-.448C7.65 53.31 7.484 53.17 5.988 52.54l-.49-.207a.76.76 0 0 1-.468-.811q.035-.294.065-.528c.202-1.612.164-1.826-.577-3.27l-.241-.475a.76.76 0 0 1 .162-.922l.39-.363c1.19-1.104 1.299-1.292 1.66-2.875q.052-.232.12-.519a.76.76 0 0 1 .717-.602l.531-.028c1.622-.08 1.826-.155 3.12-1.135l.425-.32a.76.76 0 0 1 .937 0q.238.176.425.32c1.294.98 1.499 1.054 3.12 1.135l.532.028c.36.02.635.25.717.602l.12.519c.36 1.583.47 1.77 1.66 2.875l.39.363c.262.247.325.6.162.922l-.242.474c-.74 1.445-.778 1.66-.576 3.27l.065.529a.76.76 0 0 1-.469.81l-.49.208c-.906.382-1.325.585-1.71.988q-.046.045-.087.095c-.22.25-.44.577-.746 1.052l-.29.446a.76.76 0 0 1-.88.32l-.509-.155c-.776-.24-1.218-.36-1.66-.36s-.885.12-1.66.36m5.065 2.137a2.9 2.9 0 0 0 1.423-1.139l.297-.456q.183-.286.31-.475h.232l.79 1.834-1.004-.205a1.06 1.06 0 0 0-1.116.48l-.54.87zm1.124 3.76 1.223-1.971 2.273.465a1.062 1.062 0 0 0 1.189-1.46l-1.233-2.864h5.37v4.65h-5.428c-1.407 0-2.67.525-3.532 1.355q.077-.08.138-.175m36.383 2.788v1.843H17.219V63.97c0-1 1.178-1.843 2.574-1.843h30.414c1.396 0 2.575.844 2.575 1.843m-10.128-3.968H27.346v-4.65h15.308zm-22.296-6.775a2.9 2.9 0 0 0 .464-1.959l-.067-.54c-.072-.574-.112-.89-.081-1.064.03-.174.176-.457.44-.972l.247-.485.018-.038h23.683a10.3 10.3 0 0 0 .72 5.058zm34.983 4.277c-4.53 0-8.215-3.686-8.215-8.216s3.685-8.216 8.215-8.216a8.2 8.2 0 0 1 3.35.713l.329 1.522a7 7 0 0 0-3.679-1.044 7.033 7.033 0 0 0-7.025 7.025 7.033 7.033 0 0 0 7.025 7.025 7.033 7.033 0 0 0 7.025-7.025c0-1.34-.377-2.592-1.03-3.659l1.517.327a8.2 8.2 0 0 1 .704 3.332c0 4.53-3.686 8.216-8.216 8.216m7.502-13.724-.387-.083 1.902-1.902.387.084zM5.937 7.378c0-.587.476-1.062 1.062-1.062h9.631a1.063 1.063 0 0 1 0 2.125H7a1.063 1.063 0 0 1-1.063-1.063m1.062 5.689a1.063 1.063 0 0 1 0-2.125h9.631a1.063 1.063 0 0 1 0 2.125z"/></g><path fill="#FD8A6D" d="M18.094 47.899a6.23 6.23 0 0 0-6.223-6.223 6.23 6.23 0 0 0-6.223 6.223 6.23 6.23 0 0 0 6.223 6.223 6.23 6.23 0 0 0 6.223-6.223m-6.223 4.098A4.103 4.103 0 0 1 7.773 47.9a4.103 4.103 0 0 1 4.098-4.098 4.103 4.103 0 0 1 4.098 4.098 4.103 4.103 0 0 1-4.098 4.098M35 21.357c-6.722 0-12.19 5.47-12.19 12.191s5.468 12.19 12.19 12.19 12.19-5.468 12.19-12.19-5.468-12.19-12.19-12.19m-6.591 19.789a6.69 6.69 0 0 1 6.589-5.462h.005a6.69 6.69 0 0 1 6.589 5.462A10.02 10.02 0 0 1 35 43.614a10.02 10.02 0 0 1-6.591-2.468m3.725-10.454A2.87 2.87 0 0 1 35 27.827a2.87 2.87 0 0 1 2.867 2.866A2.87 2.87 0 0 1 35 33.56a2.87 2.87 0 0 1-2.866-2.866m11.135 8.586a8.8 8.8 0 0 0-4.791-5.01 4.98 4.98 0 0 0 1.514-3.576A4.997 4.997 0 0 0 35 25.702a4.997 4.997 0 0 0-4.991 4.991c0 1.401.58 2.669 1.513 3.576a8.8 8.8 0 0 0-4.791 5.01 10 10 0 0 1-1.797-5.73c0-5.55 4.516-10.065 10.066-10.065s10.066 4.515 10.066 10.065a10 10 0 0 1-1.797 5.73m23.83.934-1.11-.239a1.062 1.062 0 0 0-1.312-1.312l-.24-1.11a1.06 1.06 0 0 0-.64-.759v-12.81h3.078a1.063 1.063 0 0 0 0-2.126h-.36V8.64c0-.587-.477-1.062-1.063-1.062h-2.904c-.587 0-1.062.475-1.062 1.062v7.665a5 5 0 0 0-.363-.228v-4.695c0-.587-.476-1.063-1.063-1.063h-2.387A53 53 0 0 0 64.1 5.73a1.062 1.062 0 0 0 2.07-.15l.334-2.3a1.063 1.063 0 0 0-1.109-1.215l-2.322.126a1.063 1.063 0 0 0-.442 1.998c-4.845 4.022-10.522 7.181-16.912 9.407a1.062 1.062 0 0 0-.39 1.767H28.655V8.795A2.96 2.96 0 0 0 25.7 5.84h-3.868v-.823a2.96 2.96 0 0 0-2.955-2.954H5.017a2.96 2.96 0 0 0-2.955 2.955v9.484a2.96 2.96 0 0 0 2.955 2.954h.54v2.793c0 .426.255.81.646.976v18.858a2.88 2.88 0 0 0-1.664 2.001l-.122.53c-.129.565-.2.875-.288 1.028s-.322.37-.746.763l-.398.371a2.886 2.886 0 0 0-.605 3.43l.247.486c.264.514.41.798.44.972s-.009.49-.08 1.064l-.067.54a2.886 2.886 0 0 0 1.742 3.017l.168.071-2.16 4.639a1.063 1.063 0 0 0 1.146 1.495l2.286-.4 1.165 2.006a1.063 1.063 0 0 0 1.882-.085l2.267-4.87c.208-.059.353-.09.455-.09.176 0 .48.093 1.033.264l.013.004 1.603 3.723a1.062 1.062 0 0 0 1.683.37c-.691.692-1.11 1.584-1.11 2.557v2.906c0 .587.476 1.063 1.063 1.063h37.688c.587 0 1.063-.476 1.063-1.063V63.97c0-2.188-2.108-3.968-4.7-3.968H44.78v-4.65h2.194a10.33 10.33 0 0 0 8.368 4.277c5.702 0 10.341-4.64 10.341-10.341 0-1.515-.334-3.01-.97-4.372l2.914-2.913a1.062 1.062 0 0 0-.527-1.79m-6.858 9.076c0 2.702-2.198 4.9-4.9 4.9a4.905 4.905 0 0 1-4.9-4.9c0-2.702 2.198-4.9 4.9-4.9a4.87 4.87 0 0 1 2.642.776l-.867.868a3.7 3.7 0 0 0-1.775-.453 3.713 3.713 0 0 0-3.708 3.709 3.713 3.713 0 0 0 3.708 3.709 3.713 3.713 0 0 0 3.71-3.71c0-.63-.16-1.225-.44-1.746l.87-.87c.48.758.76 1.656.76 2.617m-14.716-3.244H21.549a2.9 2.9 0 0 0-.793-1.268l-.398-.37c-.424-.394-.657-.611-.746-.764s-.159-.463-.287-1.027l-.123-.531a2.886 2.886 0 0 0-2.668-2.239l-.544-.028c-.578-.03-.896-.045-1.062-.105s-.42-.253-.88-.602l-.436-.328a2.9 2.9 0 0 0-1.718-.584V21.234h.485v2.792a1.062 1.062 0 0 0 1.828.736l3.39-3.528H25.7c.357 0 .7-.064 1.018-.181H45.31v.803h-.36a1.063 1.063 0 0 0 0 2.125h13.156v15.343a10.4 10.4 0 0 0-2.765-.377c-4.568 0-8.452 2.98-9.816 7.097M8.328 20.003l.722-.752c.153.437.405.827.73 1.144a2 2 0 0 0-.011.187v18.471l-.075.056c-.46.35-.715.542-.88.602-.1.037-.255.057-.486.073zm42.374-2.516v1.44h-.363v-1.44zm10.97 6.494V38l-1.44 1.44V23.982zm-5.941-2.125v-.803h.363v.803zm.363-2.928h-.363v-1.441h.363zm-2.488 2.928h-.779v-6.364h.779zm-3.267 0v-.803h.363v.803zm-2.904-3.445h.779v3.445h-.779zm9.49 30.877c0 .873-.71 1.584-1.584 1.584-.873 0-1.584-.71-1.584-1.584 0-.873.711-1.584 1.584-1.584q.05.001.097.005l-.838.838a1.063 1.063 0 0 0 1.503 1.503l.819-.82zm4.029-7.094-.084-.387 1.902-1.901.083.387zm3.435-32.491v12.153h-.778V9.702zm-2.903 9.915v2.238h-.363v-2.95q.226.333.363.712m-3.267-7.174h.779v9.412h-.78zm-2.125-1.062v3.98h-.363v-.933c0-.586-.476-1.062-1.063-1.062h-2.712a57 57 0 0 0 4.148-2.126 1 1 0 0 0-.01.14m-5.22 2.469a1.06 1.06 0 0 0-.172.579v.932h-3.623q1.942-.7 3.795-1.511m-5.564 3.636v1.44H28.582q.071-.313.072-.648v-.792zM25.7 7.965a.83.83 0 0 1 .83.83v9.484a.83.83 0 0 1-.83.83h-8.556c-.29 0-.566.118-.766.326l-1.874 1.951v-1.214c0-.587-.476-1.063-1.063-1.063H11.84a.83.83 0 0 1-.83-.83v-.823h7.867a2.94 2.94 0 0 0 1.798-.611h2.777a1.063 1.063 0 0 0 0-2.125h-1.629q.008-.108.009-.218v-2.284h1.62a1.063 1.063 0 0 0 0-2.125h-1.62V7.965zM5.017 15.331a.83.83 0 0 1-.83-.83V5.019a.83.83 0 0 1 .83-.83h13.86a.83.83 0 0 1 .83.83v9.484a.83.83 0 0 1-.83.83h-8.555c-.29 0-.566.117-.767.326l-.16.166a1.1 1.1 0 0 0-.378.394l-1.336 1.39v-1.214c0-.587-.476-1.062-1.062-1.062zM8.082 59.27l-.515-.886a1.06 1.06 0 0 0-1.102-.513l-1.01.177 1.142-2.451.15.23.296.458a2.9 2.9 0 0 0 1.842 1.258zm2.128-3.984-.508.156a.76.76 0 0 1-.88-.32q-.163-.249-.29-.448C7.65 53.31 7.484 53.17 5.988 52.54l-.49-.207a.76.76 0 0 1-.468-.811q.035-.294.065-.528c.202-1.612.164-1.826-.577-3.27l-.241-.475a.76.76 0 0 1 .162-.922l.39-.363c1.19-1.104 1.299-1.292 1.66-2.875q.052-.232.12-.519a.76.76 0 0 1 .717-.602l.531-.028c1.622-.08 1.826-.155 3.12-1.135l.425-.32a.76.76 0 0 1 .937 0q.238.176.425.32c1.294.98 1.499 1.054 3.12 1.135l.532.028c.36.02.635.25.717.602l.12.519c.36 1.583.47 1.77 1.66 2.875l.39.363c.262.247.325.6.162.922l-.242.474c-.74 1.445-.778 1.66-.576 3.27l.065.529a.76.76 0 0 1-.469.81l-.49.208c-.906.382-1.325.585-1.71.988q-.046.045-.087.095c-.22.25-.44.577-.746 1.052l-.29.446a.76.76 0 0 1-.88.32l-.509-.155c-.776-.24-1.218-.36-1.66-.36s-.885.12-1.66.36m5.065 2.137a2.9 2.9 0 0 0 1.423-1.139l.297-.456q.183-.286.31-.475h.232l.79 1.834-1.004-.205a1.06 1.06 0 0 0-1.116.48l-.54.87zm1.124 3.76 1.223-1.971 2.273.465a1.062 1.062 0 0 0 1.189-1.46l-1.233-2.864h5.37v4.65h-5.428c-1.407 0-2.67.525-3.532 1.355q.077-.08.138-.175m36.383 2.788v1.843H17.219V63.97c0-1 1.178-1.843 2.574-1.843h30.414c1.396 0 2.575.844 2.575 1.843m-10.128-3.968H27.346v-4.65h15.308zm-22.296-6.775a2.9 2.9 0 0 0 .464-1.959l-.067-.54c-.072-.574-.112-.89-.081-1.064.03-.174.176-.457.44-.972l.247-.485.018-.038h23.683a10.3 10.3 0 0 0 .72 5.058zm34.983 4.277c-4.53 0-8.215-3.686-8.215-8.216s3.685-8.216 8.215-8.216a8.2 8.2 0 0 1 3.35.713l.329 1.522a7 7 0 0 0-3.679-1.044 7.033 7.033 0 0 0-7.025 7.025 7.033 7.033 0 0 0 7.025 7.025 7.033 7.033 0 0 0 7.025-7.025c0-1.34-.377-2.592-1.03-3.659l1.517.327a8.2 8.2 0 0 1 .704 3.332c0 4.53-3.686 8.216-8.216 8.216m7.502-13.724-.387-.083 1.902-1.902.387.084zM5.937 7.378c0-.587.476-1.062 1.062-1.062h9.631a1.063 1.063 0 0 1 0 2.125H7a1.063 1.063 0 0 1-1.063-1.063m1.062 5.689a1.063 1.063 0 0 1 0-2.125h9.631a1.063 1.063 0 0 1 0 2.125z"/><defs><filter id="a" width="72" height="72" x="-1" y="-1" color-interpolation-filters="sRGB" filterUnits="userSpaceOnUse"><feFlood flood-opacity="0" result="BackgroundImageFix"/><feBlend in="SourceGraphic" in2="BackgroundImageFix" result="shape"/><feGaussianBlur result="effect1_foregroundBlur_974_32446" stdDeviation="1"/></filter></defs></svg>