<svg width="88" height="88" viewBox="0 0 88 88" fill="none" xmlns="http://www.w3.org/2000/svg">
<g clip-path="url(#clip0_1042_31467)">
<path d="M83.7875 27.0618L79 19.8743V15.2493C79 14.9178 78.8683 14.5999 78.6339 14.3655C78.3995 14.131 78.0815 13.9993 77.75 13.9993H66.3625C66.1134 12.7768 65.504 11.6568 64.6129 10.7836C63.7219 9.91032 62.5898 9.32374 61.3625 9.09934C61.1016 7.65831 60.3429 6.35466 59.2189 5.4159C58.0949 4.47714 56.677 3.96289 55.2125 3.96289C53.748 3.96289 52.3301 4.47714 51.2061 5.4159C50.0821 6.35466 49.3234 7.65831 49.0625 9.09934C47.8514 9.33758 46.7379 9.92911 45.8625 10.7993C45.0618 9.14889 43.816 7.75485 42.2656 6.77427C40.7153 5.79369 38.9219 5.26555 37.0875 5.24934C35.6249 5.24829 34.1805 5.57466 32.8605 6.20449C31.5404 6.83432 30.378 7.75165 29.4586 8.8892C28.5393 10.0268 27.8862 11.3557 27.5472 12.7785C27.2083 14.2013 27.1922 15.682 27.5 17.1118L32.75 41.6368V59.6368C31.3002 59.035 29.7093 58.8573 28.1625 59.1243C27.5908 59.2261 27.0329 59.3939 26.5 59.6243V51.1493C26.4993 47.0612 25.3516 43.0552 23.1875 39.5868C21.2656 36.5182 20.2475 32.9701 20.25 29.3493V22.7493C20.5815 22.7493 20.8995 22.6176 21.1339 22.3832C21.3683 22.1488 21.5 21.8309 21.5 21.4993V17.7493C21.5 17.0863 21.2366 16.4504 20.7678 15.9816C20.2989 15.5127 19.663 15.2493 19 15.2493H11.5C10.837 15.2493 10.2011 15.5127 9.73223 15.9816C9.26339 16.4504 9 17.0863 9 17.7493V21.4993C9 21.8309 9.1317 22.1488 9.36612 22.3832C9.60054 22.6176 9.91848 22.7493 10.25 22.7493V29.3493C10.2525 32.9701 9.23437 36.5182 7.3125 39.5868C5.1484 43.0552 4.00075 47.0612 4 51.1493V80.2493C4 81.2439 4.39509 82.1977 5.09835 82.901C5.80161 83.6042 6.75544 83.9993 7.75 83.9993H22.75C23.3774 83.9983 23.9946 83.8398 24.5449 83.5385C25.0953 83.2371 25.5612 82.8024 25.9 82.2743C27.4127 83.3743 29.2298 83.9771 31.1 83.9993C31.5696 84.0016 32.0383 83.9597 32.5 83.8743C32.7445 83.8335 32.9865 83.7792 33.225 83.7118C33.4433 83.8928 33.7165 83.9942 34 83.9993H82.75C83.0815 83.9993 83.3995 83.8676 83.6339 83.6332C83.8683 83.3988 84 83.0809 84 82.7493V27.7493C83.9981 27.5043 83.9242 27.2652 83.7875 27.0618ZM76.5 16.4993V18.9993H62.75V16.4993H76.5ZM50.25 11.4993C50.5815 11.4993 50.8995 11.3676 51.1339 11.1332C51.3683 10.8988 51.5 10.5809 51.5 10.2493C51.5 9.25478 51.8951 8.30095 52.5984 7.59769C53.3016 6.89443 54.2554 6.49934 55.25 6.49934C56.2446 6.49934 57.1984 6.89443 57.9016 7.59769C58.6049 8.30095 59 9.25478 59 10.2493C59 10.5809 59.1317 10.8988 59.3661 11.1332C59.6005 11.3676 59.9185 11.4993 60.25 11.4993C61.0237 11.5015 61.7778 11.7429 62.4088 12.1905C63.0399 12.6381 63.5171 13.2699 63.775 13.9993H61.5C61.1685 13.9993 60.8505 14.131 60.6161 14.3655C60.3817 14.5999 60.25 14.9178 60.25 15.2493V19.8743L55.575 26.8743C54.6534 26.6282 53.7039 26.5022 52.75 26.4993C51.7056 26.5027 50.6667 26.65 49.6625 26.9368L46.8375 13.7743C47.1239 13.1047 47.5992 12.533 48.2052 12.129C48.8112 11.725 49.5217 11.5062 50.25 11.4993ZM61.5 36.9618L58.375 39.7993L55.1625 36.8243C54.9314 36.61 54.6278 36.4909 54.3125 36.4909C53.9972 36.4909 53.6936 36.61 53.4625 36.8243L50.25 39.7993L47.0375 36.8243C46.8064 36.61 46.5028 36.4909 46.1875 36.4909C45.8722 36.4909 45.5686 36.61 45.3375 36.8243L44.0875 38.0743C44.0508 37.9682 44.0216 37.8596 44 37.7493C43.8956 35.4287 44.7173 33.1616 46.2844 31.4468C47.8515 29.732 50.0356 28.71 52.3563 28.6056C54.6769 28.5012 56.944 29.3229 58.6588 30.89C60.3735 32.4571 61.3956 34.6412 61.5 36.9618ZM29.9375 16.5868C29.7364 15.6487 29.7221 14.6802 29.8953 13.7365C30.0685 12.7928 30.4259 11.8925 30.9471 11.087C31.9996 9.46007 33.6554 8.31795 35.55 7.91184C37.4446 7.50573 39.423 7.86889 41.0499 8.92144C42.6768 9.97398 43.8189 11.6297 44.225 13.5243L47.3125 27.9118C45.5534 28.8831 44.0865 30.3077 43.0643 32.0377C42.0422 33.7677 41.502 35.7399 41.5 37.7493C41.5001 38.2763 41.5377 38.8027 41.6125 39.3243L38.9125 36.8243C38.6814 36.61 38.3778 36.4909 38.0625 36.4909C37.7472 36.4909 37.4436 36.61 37.2125 36.8243L34.7125 39.0993L29.9375 16.5868ZM11.5 17.7493H19V20.2493H11.5V17.7493ZM6.5 51.1493C6.49754 47.5286 7.51563 43.9804 9.4375 40.9118C11.6016 37.4435 12.7493 33.4375 12.75 29.3493V22.7493H17.75V29.3493C17.7507 33.4375 18.8984 37.4435 21.0625 40.9118C22.9844 43.9804 24.0025 47.5286 24 51.1493V51.4993H6.5V51.1493ZM6.5 53.9993H24V61.2243C21.8746 63.2846 20.5726 66.0486 20.3375 68.9993H6.5V53.9993ZM22.75 81.4993H7.75C7.41848 81.4993 7.10054 81.3676 6.86612 81.1332C6.6317 80.8988 6.5 80.5809 6.5 80.2493V71.4993H20.25C20.276 72.086 20.3386 72.6705 20.4375 73.2493C20.9199 75.9639 22.1542 78.4887 24 80.5368C23.934 80.8165 23.7737 81.0649 23.546 81.2402C23.3184 81.4155 23.0372 81.507 22.75 81.4993ZM40.6625 80.2493C39.9936 80.7514 39.2307 81.114 38.4191 81.3159C37.6075 81.5177 36.7636 81.5546 35.9375 81.4243C35.4494 81.3354 34.9746 81.1841 34.525 80.9743C34.3605 80.8982 34.1813 80.8587 34 80.8587C33.8187 80.8587 33.6395 80.8982 33.475 80.9743C33.0254 81.1841 32.5506 81.3354 32.0625 81.4243C31.2364 81.5546 30.3925 81.5177 29.5809 81.3159C28.7693 81.114 28.0064 80.7514 27.3375 80.2493C24.9571 78.4462 23.3812 75.7793 22.95 72.8243C22 67.3618 24.525 62.3243 28.6 61.5743C28.9173 61.5142 29.2396 61.4849 29.5625 61.4868C30.6881 61.5077 31.788 61.8269 32.75 62.4118V63.9993C32.75 64.3309 32.8817 64.6488 33.1161 64.8832C33.3505 65.1176 33.6685 65.2493 34 65.2493C34.3315 65.2493 34.6495 65.1176 34.8839 64.8832C35.1183 64.6488 35.25 64.3309 35.25 63.9993V62.4368C36.4853 61.6616 37.9594 61.3596 39.4 61.5868C43.475 62.3118 46 67.3493 45.05 72.8368C44.6157 75.7873 43.0401 78.4492 40.6625 80.2493ZM65.25 81.4993H43.0875C45.4456 79.3231 47.004 76.4176 47.5125 73.2493C48.7 66.4243 45.2625 60.0868 39.8375 59.1243C38.3892 58.8677 36.8984 59.0103 35.525 59.5368C35.8527 58.5408 36.4852 57.6729 37.3331 57.0561C38.181 56.4392 39.2014 56.1045 40.25 56.0993C40.5815 56.0993 40.8995 55.9676 41.1339 55.7332C41.3683 55.4988 41.5 55.1809 41.5 54.8493C41.5 54.5178 41.3683 54.1999 41.1339 53.9655C40.8995 53.731 40.5815 53.5993 40.25 53.5993C38.4016 53.5952 36.6184 54.2817 35.25 55.5243V42.0493L38.0625 39.4493L41.275 42.4243C41.5061 42.6387 41.8097 42.7578 42.125 42.7578C42.4403 42.7578 42.7439 42.6387 42.975 42.4243L46.1875 39.4493L49.4 42.4243C49.6311 42.6387 49.9347 42.7578 50.25 42.7578C50.5653 42.7578 50.8689 42.6387 51.1 42.4243L54.3125 39.4493L57.525 42.4243C57.7561 42.6387 58.0597 42.7578 58.375 42.7578C58.6903 42.7578 58.9939 42.6387 59.225 42.4243L62.4375 39.4493L65.25 42.0493V81.4993ZM65.25 38.6493L64 37.4743C63.9572 35.4627 63.3756 33.4993 62.3159 31.7888C61.2562 30.0784 59.7572 28.6834 57.975 27.7493L61.5 22.4993L65.25 28.1243V38.6493ZM63.8375 21.4993H77.075L80.4125 26.4993H67.175L63.8375 21.4993ZM67.75 42.0493L70.5625 39.4493L73.375 42.0493V74.6993L67.75 79.8993V42.0493ZM69.7 81.4993L74.625 76.9493L79.55 81.4993H69.7ZM81.5 79.8993L75.875 74.6993V42.0493L78.6875 39.4493L81.5 42.0493V79.8993ZM81.5 38.6493L79.5375 36.8368C79.3064 36.6225 79.0027 36.5034 78.6875 36.5034C78.3723 36.5034 78.0686 36.6225 77.8375 36.8368L74.625 39.7993L71.4125 36.8368C71.1814 36.6225 70.8777 36.5034 70.5625 36.5034C70.2473 36.5034 69.9436 36.6225 69.7125 36.8368L67.75 38.6493V28.9993H81.5V38.6493Z" fill="#FD8A6D"/>
<path d="M36.1375 23.6368L41.1375 18.6368C41.254 18.5202 41.3465 18.3818 41.4096 18.2296C41.4726 18.0773 41.5051 17.9141 41.5051 17.7493C41.5051 17.5844 41.4726 17.4212 41.4096 17.2689C41.3465 17.1167 41.254 16.9783 41.1375 16.8618C41.0209 16.7452 40.8826 16.6528 40.7303 16.5897C40.578 16.5266 40.4148 16.4941 40.25 16.4941C40.0852 16.4941 39.922 16.5266 39.7697 16.5897C39.6174 16.6528 39.479 16.7452 39.3625 16.8618L34.3625 21.8618C34.1271 22.0971 33.9949 22.4164 33.9949 22.7493C33.9949 23.0821 34.1271 23.4014 34.3625 23.6368C34.5979 23.8721 34.9171 24.0044 35.25 24.0044C35.5829 24.0044 35.9021 23.8721 36.1375 23.6368Z" fill="#FD8A6D"/>
<path d="M36.8625 32.3868C36.9788 32.5039 37.117 32.5969 37.2693 32.6604C37.4216 32.7238 37.585 32.7565 37.75 32.7565C37.9151 32.7565 38.0784 32.7238 38.2308 32.6604C38.3831 32.5969 38.5213 32.5039 38.6375 32.3868L43.6375 27.3868C43.8729 27.1514 44.0052 26.8321 44.0052 26.4993C44.0052 26.1664 43.8729 25.8471 43.6375 25.6118C43.4022 25.3764 43.0829 25.2441 42.75 25.2441C42.4172 25.2441 42.0979 25.3764 41.8625 25.6118L36.8625 30.6118C36.7454 30.728 36.6524 30.8662 36.5889 31.0185C36.5255 31.1709 36.4928 31.3342 36.4928 31.4993C36.4928 31.6643 36.5255 31.8277 36.5889 31.98C36.6524 32.1323 36.7454 32.2705 36.8625 32.3868Z" fill="#FD8A6D"/>
</g>
<g clip-path="url(#clip1_1042_31467)" filter="url(#filter0_f_1042_31467)">
<path d="M83.7875 27.0618L79 19.8743V15.2493C79 14.9178 78.8683 14.5999 78.6339 14.3655C78.3995 14.131 78.0815 13.9993 77.75 13.9993H66.3625C66.1134 12.7768 65.504 11.6568 64.6129 10.7836C63.7219 9.91032 62.5898 9.32374 61.3625 9.09934C61.1016 7.65831 60.3429 6.35466 59.2189 5.4159C58.0949 4.47714 56.677 3.96289 55.2125 3.96289C53.748 3.96289 52.3301 4.47714 51.2061 5.4159C50.0821 6.35466 49.3234 7.65831 49.0625 9.09934C47.8514 9.33758 46.7379 9.92911 45.8625 10.7993C45.0618 9.14889 43.816 7.75485 42.2656 6.77427C40.7153 5.79369 38.9219 5.26555 37.0875 5.24934C35.6249 5.24829 34.1805 5.57466 32.8605 6.20449C31.5404 6.83432 30.378 7.75165 29.4586 8.8892C28.5393 10.0268 27.8862 11.3557 27.5472 12.7785C27.2083 14.2013 27.1922 15.682 27.5 17.1118L32.75 41.6368V59.6368C31.3002 59.035 29.7093 58.8573 28.1625 59.1243C27.5908 59.2261 27.0329 59.3939 26.5 59.6243V51.1493C26.4993 47.0612 25.3516 43.0552 23.1875 39.5868C21.2656 36.5182 20.2475 32.9701 20.25 29.3493V22.7493C20.5815 22.7493 20.8995 22.6176 21.1339 22.3832C21.3683 22.1488 21.5 21.8309 21.5 21.4993V17.7493C21.5 17.0863 21.2366 16.4504 20.7678 15.9816C20.2989 15.5127 19.663 15.2493 19 15.2493H11.5C10.837 15.2493 10.2011 15.5127 9.73223 15.9816C9.26339 16.4504 9 17.0863 9 17.7493V21.4993C9 21.8309 9.1317 22.1488 9.36612 22.3832C9.60054 22.6176 9.91848 22.7493 10.25 22.7493V29.3493C10.2525 32.9701 9.23437 36.5182 7.3125 39.5868C5.1484 43.0552 4.00075 47.0612 4 51.1493V80.2493C4 81.2439 4.39509 82.1977 5.09835 82.901C5.80161 83.6042 6.75544 83.9993 7.75 83.9993H22.75C23.3774 83.9983 23.9946 83.8398 24.5449 83.5385C25.0953 83.2371 25.5612 82.8024 25.9 82.2743C27.4127 83.3743 29.2298 83.9771 31.1 83.9993C31.5696 84.0016 32.0383 83.9597 32.5 83.8743C32.7445 83.8335 32.9865 83.7792 33.225 83.7118C33.4433 83.8928 33.7165 83.9942 34 83.9993H82.75C83.0815 83.9993 83.3995 83.8676 83.6339 83.6332C83.8683 83.3988 84 83.0809 84 82.7493V27.7493C83.9981 27.5043 83.9242 27.2652 83.7875 27.0618ZM76.5 16.4993V18.9993H62.75V16.4993H76.5ZM50.25 11.4993C50.5815 11.4993 50.8995 11.3676 51.1339 11.1332C51.3683 10.8988 51.5 10.5809 51.5 10.2493C51.5 9.25478 51.8951 8.30095 52.5984 7.59769C53.3016 6.89443 54.2554 6.49934 55.25 6.49934C56.2446 6.49934 57.1984 6.89443 57.9016 7.59769C58.6049 8.30095 59 9.25478 59 10.2493C59 10.5809 59.1317 10.8988 59.3661 11.1332C59.6005 11.3676 59.9185 11.4993 60.25 11.4993C61.0237 11.5015 61.7778 11.7429 62.4088 12.1905C63.0399 12.6381 63.5171 13.2699 63.775 13.9993H61.5C61.1685 13.9993 60.8505 14.131 60.6161 14.3655C60.3817 14.5999 60.25 14.9178 60.25 15.2493V19.8743L55.575 26.8743C54.6534 26.6282 53.7039 26.5022 52.75 26.4993C51.7056 26.5027 50.6667 26.65 49.6625 26.9368L46.8375 13.7743C47.1239 13.1047 47.5992 12.533 48.2052 12.129C48.8112 11.725 49.5217 11.5062 50.25 11.4993ZM61.5 36.9618L58.375 39.7993L55.1625 36.8243C54.9314 36.61 54.6278 36.4909 54.3125 36.4909C53.9972 36.4909 53.6936 36.61 53.4625 36.8243L50.25 39.7993L47.0375 36.8243C46.8064 36.61 46.5028 36.4909 46.1875 36.4909C45.8722 36.4909 45.5686 36.61 45.3375 36.8243L44.0875 38.0743C44.0508 37.9682 44.0216 37.8596 44 37.7493C43.8956 35.4287 44.7173 33.1616 46.2844 31.4468C47.8515 29.732 50.0356 28.71 52.3563 28.6056C54.6769 28.5012 56.944 29.3229 58.6588 30.89C60.3735 32.4571 61.3956 34.6412 61.5 36.9618ZM29.9375 16.5868C29.7364 15.6487 29.7221 14.6802 29.8953 13.7365C30.0685 12.7928 30.4259 11.8925 30.9471 11.087C31.9996 9.46007 33.6554 8.31795 35.55 7.91184C37.4446 7.50573 39.423 7.86889 41.0499 8.92144C42.6768 9.97398 43.8189 11.6297 44.225 13.5243L47.3125 27.9118C45.5534 28.8831 44.0865 30.3077 43.0643 32.0377C42.0422 33.7677 41.502 35.7399 41.5 37.7493C41.5001 38.2763 41.5377 38.8027 41.6125 39.3243L38.9125 36.8243C38.6814 36.61 38.3778 36.4909 38.0625 36.4909C37.7472 36.4909 37.4436 36.61 37.2125 36.8243L34.7125 39.0993L29.9375 16.5868ZM11.5 17.7493H19V20.2493H11.5V17.7493ZM6.5 51.1493C6.49754 47.5286 7.51563 43.9804 9.4375 40.9118C11.6016 37.4435 12.7493 33.4375 12.75 29.3493V22.7493H17.75V29.3493C17.7507 33.4375 18.8984 37.4435 21.0625 40.9118C22.9844 43.9804 24.0025 47.5286 24 51.1493V51.4993H6.5V51.1493ZM6.5 53.9993H24V61.2243C21.8746 63.2846 20.5726 66.0486 20.3375 68.9993H6.5V53.9993ZM22.75 81.4993H7.75C7.41848 81.4993 7.10054 81.3676 6.86612 81.1332C6.6317 80.8988 6.5 80.5809 6.5 80.2493V71.4993H20.25C20.276 72.086 20.3386 72.6705 20.4375 73.2493C20.9199 75.9639 22.1542 78.4887 24 80.5368C23.934 80.8165 23.7737 81.0649 23.546 81.2402C23.3184 81.4155 23.0372 81.507 22.75 81.4993ZM40.6625 80.2493C39.9936 80.7514 39.2307 81.114 38.4191 81.3159C37.6075 81.5177 36.7636 81.5546 35.9375 81.4243C35.4494 81.3354 34.9746 81.1841 34.525 80.9743C34.3605 80.8982 34.1813 80.8587 34 80.8587C33.8187 80.8587 33.6395 80.8982 33.475 80.9743C33.0254 81.1841 32.5506 81.3354 32.0625 81.4243C31.2364 81.5546 30.3925 81.5177 29.5809 81.3159C28.7693 81.114 28.0064 80.7514 27.3375 80.2493C24.9571 78.4462 23.3812 75.7793 22.95 72.8243C22 67.3618 24.525 62.3243 28.6 61.5743C28.9173 61.5142 29.2396 61.4849 29.5625 61.4868C30.6881 61.5077 31.788 61.8269 32.75 62.4118V63.9993C32.75 64.3309 32.8817 64.6488 33.1161 64.8832C33.3505 65.1176 33.6685 65.2493 34 65.2493C34.3315 65.2493 34.6495 65.1176 34.8839 64.8832C35.1183 64.6488 35.25 64.3309 35.25 63.9993V62.4368C36.4853 61.6616 37.9594 61.3596 39.4 61.5868C43.475 62.3118 46 67.3493 45.05 72.8368C44.6157 75.7873 43.0401 78.4492 40.6625 80.2493ZM65.25 81.4993H43.0875C45.4456 79.3231 47.004 76.4176 47.5125 73.2493C48.7 66.4243 45.2625 60.0868 39.8375 59.1243C38.3892 58.8677 36.8984 59.0103 35.525 59.5368C35.8527 58.5408 36.4852 57.6729 37.3331 57.0561C38.181 56.4392 39.2014 56.1045 40.25 56.0993C40.5815 56.0993 40.8995 55.9676 41.1339 55.7332C41.3683 55.4988 41.5 55.1809 41.5 54.8493C41.5 54.5178 41.3683 54.1999 41.1339 53.9655C40.8995 53.731 40.5815 53.5993 40.25 53.5993C38.4016 53.5952 36.6184 54.2817 35.25 55.5243V42.0493L38.0625 39.4493L41.275 42.4243C41.5061 42.6387 41.8097 42.7578 42.125 42.7578C42.4403 42.7578 42.7439 42.6387 42.975 42.4243L46.1875 39.4493L49.4 42.4243C49.6311 42.6387 49.9347 42.7578 50.25 42.7578C50.5653 42.7578 50.8689 42.6387 51.1 42.4243L54.3125 39.4493L57.525 42.4243C57.7561 42.6387 58.0597 42.7578 58.375 42.7578C58.6903 42.7578 58.9939 42.6387 59.225 42.4243L62.4375 39.4493L65.25 42.0493V81.4993ZM65.25 38.6493L64 37.4743C63.9572 35.4627 63.3756 33.4993 62.3159 31.7888C61.2562 30.0784 59.7572 28.6834 57.975 27.7493L61.5 22.4993L65.25 28.1243V38.6493ZM63.8375 21.4993H77.075L80.4125 26.4993H67.175L63.8375 21.4993ZM67.75 42.0493L70.5625 39.4493L73.375 42.0493V74.6993L67.75 79.8993V42.0493ZM69.7 81.4993L74.625 76.9493L79.55 81.4993H69.7ZM81.5 79.8993L75.875 74.6993V42.0493L78.6875 39.4493L81.5 42.0493V79.8993ZM81.5 38.6493L79.5375 36.8368C79.3064 36.6225 79.0027 36.5034 78.6875 36.5034C78.3723 36.5034 78.0686 36.6225 77.8375 36.8368L74.625 39.7993L71.4125 36.8368C71.1814 36.6225 70.8777 36.5034 70.5625 36.5034C70.2473 36.5034 69.9436 36.6225 69.7125 36.8368L67.75 38.6493V28.9993H81.5V38.6493Z" fill="#FD8A6D"/>
<path d="M36.1375 23.6368L41.1375 18.6368C41.254 18.5202 41.3465 18.3818 41.4096 18.2296C41.4726 18.0773 41.5051 17.9141 41.5051 17.7493C41.5051 17.5844 41.4726 17.4212 41.4096 17.2689C41.3465 17.1167 41.254 16.9783 41.1375 16.8618C41.0209 16.7452 40.8826 16.6528 40.7303 16.5897C40.578 16.5266 40.4148 16.4941 40.25 16.4941C40.0852 16.4941 39.922 16.5266 39.7697 16.5897C39.6174 16.6528 39.479 16.7452 39.3625 16.8618L34.3625 21.8618C34.1271 22.0971 33.9949 22.4164 33.9949 22.7493C33.9949 23.0821 34.1271 23.4014 34.3625 23.6368C34.5979 23.8721 34.9171 24.0044 35.25 24.0044C35.5829 24.0044 35.9021 23.8721 36.1375 23.6368Z" fill="#FD8A6D"/>
<path d="M36.8625 32.3868C36.9788 32.5039 37.117 32.5969 37.2693 32.6604C37.4216 32.7238 37.585 32.7565 37.75 32.7565C37.9151 32.7565 38.0784 32.7238 38.2308 32.6604C38.3831 32.5969 38.5213 32.5039 38.6375 32.3868L43.6375 27.3868C43.8729 27.1514 44.0052 26.8321 44.0052 26.4993C44.0052 26.1664 43.8729 25.8471 43.6375 25.6118C43.4022 25.3764 43.0829 25.2441 42.75 25.2441C42.4172 25.2441 42.0979 25.3764 41.8625 25.6118L36.8625 30.6118C36.7454 30.728 36.6524 30.8662 36.5889 31.0185C36.5255 31.1709 36.4928 31.3342 36.4928 31.4993C36.4928 31.6643 36.5255 31.8277 36.5889 31.98C36.6524 32.1323 36.7454 32.2705 36.8625 32.3868Z" fill="#FD8A6D"/>
</g>
<defs>
<filter id="filter0_f_1042_31467" x="0" y="0" width="88" height="88" filterUnits="userSpaceOnUse" color-interpolation-filters="sRGB">
<feFlood flood-opacity="0" result="BackgroundImageFix"/>
<feBlend mode="normal" in="SourceGraphic" in2="BackgroundImageFix" result="shape"/>
<feGaussianBlur stdDeviation="2" result="effect1_foregroundBlur_1042_31467"/>
</filter>
<clipPath id="clip0_1042_31467">
<rect width="80" height="80" fill="white" transform="translate(4 4)"/>
</clipPath>
<clipPath id="clip1_1042_31467">
<rect width="80" height="80" fill="white" transform="translate(4 4)"/>
</clipPath>
</defs>
</svg>
