<svg width="86" height="86" viewBox="0 0 86 86" fill="none" xmlns="http://www.w3.org/2000/svg">
<path d="M5.5 14.9352H10.8389L17.405 30.2828C17.5773 30.6856 17.9731 30.9464 18.4105 30.9464H18.4209C18.8625 30.9422 19.2581 30.673 19.4241 30.2636L25.6383 14.9353H31.6097C32.0552 14.9353 32.4559 14.6652 32.6233 14.2525L35.132 8.0644L42.0625 20.9113C42.2397 21.2397 42.572 21.4552 42.9442 21.4828C43.3158 21.51 43.6769 21.3463 43.9006 21.0477L48.4775 14.9353H73.2672C73.7508 16.7421 75.4014 18.0767 77.3584 18.0767C79.6937 18.0767 81.5936 16.1767 81.5936 13.8414C81.5936 11.5061 79.6936 9.60627 77.3584 9.60627C75.4013 9.60627 73.7506 10.941 73.267 12.7478H47.93C47.5855 12.7478 47.2611 12.9102 47.0545 13.186L43.1752 18.3667L35.9541 4.9808C35.753 4.60799 35.3541 4.38408 34.9316 4.40799C34.5086 4.43112 34.137 4.69658 33.9778 5.08908L30.873 12.7478H24.9016C24.4561 12.7478 24.0553 13.018 23.888 13.4306L18.3834 27.0085L12.5661 13.4113C12.3939 13.0088 11.9983 12.7477 11.5605 12.7477H5.5C4.89594 12.7477 4.40625 13.2374 4.40625 13.8414C4.40625 14.4455 4.89594 14.9352 5.5 14.9352ZM77.3586 11.7936C78.4878 11.7936 79.4062 12.7122 79.4062 13.8413C79.4062 14.9703 78.4877 15.8891 77.3586 15.8891C76.2295 15.8891 75.3108 14.9705 75.3108 13.8413C75.3108 12.7121 76.2294 11.7936 77.3586 11.7936ZM36.7005 72.4341H36.0433C35.4978 70.256 34.9297 67.9674 34.397 65.7057C33.3883 61.4221 32.3544 58.6883 26.6108 57.0591L21.0586 53.071C20.1048 52.3858 18.9625 52.1505 17.8853 52.3227L14.1881 43.5956C11.6842 37.6852 8.43016 38.3758 7.4925 38.728C5.18375 39.5958 3.82844 42.6546 4.64922 45.1457L9.36266 59.4521C9.41234 59.6028 9.46266 59.7572 9.51391 59.9147C10.2838 62.2774 11.2417 65.2177 13.4463 66.733L19.8731 71.15C20.3825 71.5 20.7434 71.9182 20.9833 72.4333H20.8414C20.1356 72.4333 19.4739 72.7064 18.9784 73.2025C18.4828 73.6986 18.2102 74.3605 18.2109 75.0663L18.2147 78.9647C18.2159 80.4136 19.3959 81.5925 20.845 81.5927L36.7039 81.5936C37.4097 81.5936 38.0713 81.3203 38.5669 80.8244C39.0623 80.3283 39.335 79.6664 39.3344 78.9607L39.3306 75.0621C39.3294 73.613 38.1494 72.4341 36.7005 72.4341ZM21.1122 69.3471L14.6853 64.93C13.0919 63.8349 12.2613 61.2855 11.5938 59.2369C11.5417 59.0771 11.4906 58.9203 11.4403 58.7674L6.72687 44.461C6.23609 42.9713 7.16078 41.1894 8.26219 40.7755C9.53531 40.2974 10.997 41.6707 12.1741 44.4488L15.8842 53.2066C15.5872 53.4444 15.3173 53.7261 15.0847 54.05C14.4197 54.9758 14.1555 56.1085 14.3409 57.2392C14.5264 58.37 15.1383 59.3589 16.0639 60.0239L23.6517 65.4744C24.1425 65.8271 24.8258 65.7147 25.1781 65.2242C25.5306 64.7336 25.4186 64.0502 24.928 63.6978L17.3402 58.2472C16.8889 57.9232 16.5905 57.4396 16.4995 56.8853C16.4086 56.3311 16.537 55.7775 16.8611 55.3263C17.5345 54.3889 18.845 54.1741 19.7822 54.8474L25.4919 58.9486C25.5973 59.0244 25.7153 59.0807 25.8405 59.115C30.7103 60.4516 31.3617 62.36 32.2677 66.2069C32.7603 68.2983 33.282 70.4085 33.7881 72.4338L23.302 72.4332C22.9561 71.1469 22.2208 70.1089 21.1122 69.3471ZM37.0195 79.2783C36.9613 79.3366 36.8592 79.4061 36.7031 79.4061L20.845 79.4052C20.6009 79.4052 20.4023 79.2066 20.402 78.9625L20.3983 75.0639C20.3981 74.9088 20.4675 74.8067 20.5258 74.7483C20.5841 74.69 20.6859 74.6205 20.8412 74.6205L36.7003 74.6214C36.9444 74.6214 37.143 74.82 37.1431 75.0641L37.1469 78.9625C37.1472 79.118 37.0777 79.22 37.0195 79.2783ZM78.5075 38.728C77.5698 38.3757 74.3158 37.6852 71.8119 43.5956L68.1139 52.3244C66.9889 52.1442 65.8627 52.4091 64.9414 53.0708L59.3892 57.0591C53.6456 58.6883 52.6117 61.4219 51.603 65.7055C51.072 67.9599 50.5034 70.2508 49.9567 72.4341H49.2997C47.8508 72.4341 46.6708 73.613 46.6694 75.0621L46.6656 78.9607C46.665 79.6664 46.9375 80.3283 47.4331 80.8244C47.9288 81.3205 48.5903 81.5936 49.2972 81.5936L65.1553 81.5927C66.6042 81.5925 67.7842 80.4136 67.7856 78.9647L67.7894 75.0661C67.79 74.3603 67.5175 73.6985 67.0219 73.2024C66.5262 72.7063 65.8645 72.4332 65.1588 72.4332H65.0167C65.2566 71.918 65.6175 71.4999 66.1269 71.1499L72.5537 66.7328C74.7586 65.2175 75.7166 62.2769 76.4863 59.9142C76.5375 59.7569 76.5878 59.6025 76.6373 59.4521L81.3508 45.1457C82.1716 42.6546 80.8164 39.5957 78.5075 38.728ZM65.1588 74.6207C65.3139 74.6207 65.4159 74.6902 65.4742 74.7485C65.5325 74.8067 65.6019 74.9088 65.6017 75.0641L65.598 78.9627C65.5978 79.2067 65.3991 79.4053 65.155 79.4053L49.2961 79.4061C49.1408 79.4061 49.0389 79.3366 48.9805 79.2783C48.9222 79.22 48.8528 79.118 48.853 78.9627L48.8567 75.0641C48.8569 74.82 49.0556 74.6214 49.2997 74.6214L65.1588 74.6207ZM79.2733 44.4611L74.5598 58.7675C74.5095 58.9203 74.4584 59.0771 74.4064 59.2366C73.7391 61.2852 72.9084 63.8349 71.3147 64.93L64.8878 69.3471C63.7792 70.1089 63.0438 71.1472 62.6978 72.4333L52.2117 72.4339C52.7191 70.4041 53.2413 68.2921 53.7323 66.2071C54.6383 62.3603 55.2898 60.4519 60.1595 59.1153C60.2847 59.081 60.4027 59.0246 60.5081 58.9489L66.2178 54.8475C66.6689 54.5235 67.2227 54.3952 67.7769 54.4858C68.3309 54.5767 68.8147 54.8752 69.1389 55.3264C69.463 55.7777 69.5914 56.3313 69.5006 56.8855C69.4097 57.4397 69.1113 57.9233 68.66 58.2475L61.0722 63.698C60.5816 64.0503 60.4695 64.7338 60.822 65.2244C61.1742 65.715 61.8577 65.8271 62.3484 65.4746L69.9362 60.0241C70.862 59.3591 71.4741 58.3702 71.6594 57.2394C71.8448 56.1086 71.5806 54.976 70.9156 54.0502C70.6855 53.7297 70.4166 53.4469 70.1162 53.2064L73.8262 44.4489C75.0033 41.6708 76.4655 40.298 77.7381 40.7757C78.8392 41.1896 79.7641 42.9714 79.2733 44.4611ZM57.2763 47.8333C61.2947 42.9711 63.248 38.6541 63.248 34.6353C63.248 29.32 58.4611 24.9958 52.5772 24.9958C48.2703 24.9958 45.4931 26.5557 43 30.3783C40.5069 26.5557 37.7298 24.9958 33.423 24.9958C27.5391 24.9958 22.752 29.32 22.752 34.6353C22.752 38.6541 24.7055 42.9711 28.7238 47.8333C32.1041 51.9235 36.537 55.9686 41.56 60.4536C41.9705 60.8202 42.4853 61.0035 43 61.0035C43.5147 61.0035 44.0295 60.8202 44.44 60.4536C49.4631 55.9686 53.8959 51.9235 57.2763 47.8333ZM43 58.8067C34.5306 51.2449 24.9394 42.6757 24.9394 34.6353C24.9394 30.5263 28.745 27.1833 33.4228 27.1833C36.9898 27.1833 39.0941 28.3811 41.1867 31.6025C41.5867 32.2185 42.2645 32.5861 42.9998 32.5861C43.7352 32.5861 44.413 32.2183 44.813 31.6025C46.9056 28.381 49.0098 27.1833 52.577 27.1833C57.2548 27.1833 61.0603 30.5263 61.0603 34.6353C61.0606 42.6757 51.4694 51.2447 43 58.8067ZM49.5975 39.353H46.6469V36.4024C46.6469 35.7983 46.1572 35.3086 45.5531 35.3086H40.4467C39.8427 35.3086 39.353 35.7983 39.353 36.4024V39.353H36.4025C35.7984 39.353 35.3088 39.8427 35.3088 40.4467V45.5532C35.3088 46.1572 35.7984 46.6469 36.4025 46.6469H39.353V49.5974C39.353 50.2014 39.8427 50.6911 40.4467 50.6911H45.5531C46.1572 50.6911 46.6469 50.2014 46.6469 49.5974V46.6469H49.5975C50.2016 46.6469 50.6912 46.1572 50.6912 45.5532V40.4467C50.6912 39.8427 50.2016 39.353 49.5975 39.353ZM48.5037 44.4594H45.5531C44.9491 44.4594 44.4594 44.9491 44.4594 45.5532V48.5036H41.5405V45.5532C41.5405 44.9491 41.0508 44.4594 40.4467 44.4594H37.4963V41.5405H40.4467C41.0508 41.5405 41.5405 41.0508 41.5405 40.4467V37.4961H44.4594V40.4467C44.4594 41.0508 44.9491 41.5405 45.5531 41.5405H48.5037V44.4594Z" fill="#FD8A6D"/>
<g filter="url(#filter0_f_1042_31483)">
<path d="M5.5 14.9352H10.8389L17.405 30.2828C17.5773 30.6856 17.9731 30.9464 18.4105 30.9464H18.4209C18.8625 30.9422 19.2581 30.673 19.4241 30.2636L25.6383 14.9353H31.6097C32.0552 14.9353 32.4559 14.6652 32.6233 14.2525L35.132 8.0644L42.0625 20.9113C42.2397 21.2397 42.572 21.4552 42.9442 21.4828C43.3158 21.51 43.6769 21.3463 43.9006 21.0477L48.4775 14.9353H73.2672C73.7508 16.7421 75.4014 18.0767 77.3584 18.0767C79.6937 18.0767 81.5936 16.1767 81.5936 13.8414C81.5936 11.5061 79.6936 9.60627 77.3584 9.60627C75.4013 9.60627 73.7506 10.941 73.267 12.7478H47.93C47.5855 12.7478 47.2611 12.9102 47.0545 13.186L43.1752 18.3667L35.9541 4.9808C35.753 4.60799 35.3541 4.38408 34.9316 4.40799C34.5086 4.43112 34.137 4.69658 33.9778 5.08908L30.873 12.7478H24.9016C24.4561 12.7478 24.0553 13.018 23.888 13.4306L18.3834 27.0085L12.5661 13.4113C12.3939 13.0088 11.9983 12.7477 11.5605 12.7477H5.5C4.89594 12.7477 4.40625 13.2374 4.40625 13.8414C4.40625 14.4455 4.89594 14.9352 5.5 14.9352ZM77.3586 11.7936C78.4878 11.7936 79.4062 12.7122 79.4062 13.8413C79.4062 14.9703 78.4877 15.8891 77.3586 15.8891C76.2295 15.8891 75.3108 14.9705 75.3108 13.8413C75.3108 12.7121 76.2294 11.7936 77.3586 11.7936ZM36.7005 72.4341H36.0433C35.4978 70.256 34.9297 67.9674 34.397 65.7057C33.3883 61.4221 32.3544 58.6883 26.6108 57.0591L21.0586 53.071C20.1048 52.3858 18.9625 52.1505 17.8853 52.3227L14.1881 43.5956C11.6842 37.6852 8.43016 38.3758 7.4925 38.728C5.18375 39.5958 3.82844 42.6546 4.64922 45.1457L9.36266 59.4521C9.41234 59.6028 9.46266 59.7572 9.51391 59.9147C10.2838 62.2774 11.2417 65.2177 13.4463 66.733L19.8731 71.15C20.3825 71.5 20.7434 71.9182 20.9833 72.4333H20.8414C20.1356 72.4333 19.4739 72.7064 18.9784 73.2025C18.4828 73.6986 18.2102 74.3605 18.2109 75.0663L18.2147 78.9647C18.2159 80.4136 19.3959 81.5925 20.845 81.5927L36.7039 81.5936C37.4097 81.5936 38.0713 81.3203 38.5669 80.8244C39.0623 80.3283 39.335 79.6664 39.3344 78.9607L39.3306 75.0621C39.3294 73.613 38.1494 72.4341 36.7005 72.4341ZM21.1122 69.3471L14.6853 64.93C13.0919 63.8349 12.2613 61.2855 11.5938 59.2369C11.5417 59.0771 11.4906 58.9203 11.4403 58.7674L6.72687 44.461C6.23609 42.9713 7.16078 41.1894 8.26219 40.7755C9.53531 40.2974 10.997 41.6707 12.1741 44.4488L15.8842 53.2066C15.5872 53.4444 15.3173 53.7261 15.0847 54.05C14.4197 54.9758 14.1555 56.1085 14.3409 57.2392C14.5264 58.37 15.1383 59.3589 16.0639 60.0239L23.6517 65.4744C24.1425 65.8271 24.8258 65.7147 25.1781 65.2242C25.5306 64.7336 25.4186 64.0502 24.928 63.6978L17.3402 58.2472C16.8889 57.9232 16.5905 57.4396 16.4995 56.8853C16.4086 56.3311 16.537 55.7775 16.8611 55.3263C17.5345 54.3889 18.845 54.1741 19.7822 54.8474L25.4919 58.9486C25.5973 59.0244 25.7153 59.0807 25.8405 59.115C30.7103 60.4516 31.3617 62.36 32.2677 66.2069C32.7603 68.2983 33.282 70.4085 33.7881 72.4338L23.302 72.4332C22.9561 71.1469 22.2208 70.1089 21.1122 69.3471ZM37.0195 79.2783C36.9613 79.3366 36.8592 79.4061 36.7031 79.4061L20.845 79.4052C20.6009 79.4052 20.4023 79.2066 20.402 78.9625L20.3983 75.0639C20.3981 74.9088 20.4675 74.8067 20.5258 74.7483C20.5841 74.69 20.6859 74.6205 20.8412 74.6205L36.7003 74.6214C36.9444 74.6214 37.143 74.82 37.1431 75.0641L37.1469 78.9625C37.1472 79.118 37.0777 79.22 37.0195 79.2783ZM78.5075 38.728C77.5698 38.3757 74.3158 37.6852 71.8119 43.5956L68.1139 52.3244C66.9889 52.1442 65.8627 52.4091 64.9414 53.0708L59.3892 57.0591C53.6456 58.6883 52.6117 61.4219 51.603 65.7055C51.072 67.9599 50.5034 70.2508 49.9567 72.4341H49.2997C47.8508 72.4341 46.6708 73.613 46.6694 75.0621L46.6656 78.9607C46.665 79.6664 46.9375 80.3283 47.4331 80.8244C47.9288 81.3205 48.5903 81.5936 49.2972 81.5936L65.1553 81.5927C66.6042 81.5925 67.7842 80.4136 67.7856 78.9647L67.7894 75.0661C67.79 74.3603 67.5175 73.6985 67.0219 73.2024C66.5262 72.7063 65.8645 72.4332 65.1588 72.4332H65.0167C65.2566 71.918 65.6175 71.4999 66.1269 71.1499L72.5537 66.7328C74.7586 65.2175 75.7166 62.2769 76.4863 59.9142C76.5375 59.7569 76.5878 59.6025 76.6373 59.4521L81.3508 45.1457C82.1716 42.6546 80.8164 39.5957 78.5075 38.728ZM65.1588 74.6207C65.3139 74.6207 65.4159 74.6902 65.4742 74.7485C65.5325 74.8067 65.6019 74.9088 65.6017 75.0641L65.598 78.9627C65.5978 79.2067 65.3991 79.4053 65.155 79.4053L49.2961 79.4061C49.1408 79.4061 49.0389 79.3366 48.9805 79.2783C48.9222 79.22 48.8528 79.118 48.853 78.9627L48.8567 75.0641C48.8569 74.82 49.0556 74.6214 49.2997 74.6214L65.1588 74.6207ZM79.2733 44.4611L74.5598 58.7675C74.5095 58.9203 74.4584 59.0771 74.4064 59.2366C73.7391 61.2852 72.9084 63.8349 71.3147 64.93L64.8878 69.3471C63.7792 70.1089 63.0438 71.1472 62.6978 72.4333L52.2117 72.4339C52.7191 70.4041 53.2413 68.2921 53.7323 66.2071C54.6383 62.3603 55.2898 60.4519 60.1595 59.1153C60.2847 59.081 60.4027 59.0246 60.5081 58.9489L66.2178 54.8475C66.6689 54.5235 67.2227 54.3952 67.7769 54.4858C68.3309 54.5767 68.8147 54.8752 69.1389 55.3264C69.463 55.7777 69.5914 56.3313 69.5006 56.8855C69.4097 57.4397 69.1113 57.9233 68.66 58.2475L61.0722 63.698C60.5816 64.0503 60.4695 64.7338 60.822 65.2244C61.1742 65.715 61.8577 65.8271 62.3484 65.4746L69.9362 60.0241C70.862 59.3591 71.4741 58.3702 71.6594 57.2394C71.8448 56.1086 71.5806 54.976 70.9156 54.0502C70.6855 53.7297 70.4166 53.4469 70.1162 53.2064L73.8262 44.4489C75.0033 41.6708 76.4655 40.298 77.7381 40.7757C78.8392 41.1896 79.7641 42.9714 79.2733 44.4611ZM57.2763 47.8333C61.2947 42.9711 63.248 38.6541 63.248 34.6353C63.248 29.32 58.4611 24.9958 52.5772 24.9958C48.2703 24.9958 45.4931 26.5557 43 30.3783C40.5069 26.5557 37.7298 24.9958 33.423 24.9958C27.5391 24.9958 22.752 29.32 22.752 34.6353C22.752 38.6541 24.7055 42.9711 28.7238 47.8333C32.1041 51.9235 36.537 55.9686 41.56 60.4536C41.9705 60.8202 42.4853 61.0035 43 61.0035C43.5147 61.0035 44.0295 60.8202 44.44 60.4536C49.4631 55.9686 53.8959 51.9235 57.2763 47.8333ZM43 58.8067C34.5306 51.2449 24.9394 42.6757 24.9394 34.6353C24.9394 30.5263 28.745 27.1833 33.4228 27.1833C36.9898 27.1833 39.0941 28.3811 41.1867 31.6025C41.5867 32.2185 42.2645 32.5861 42.9998 32.5861C43.7352 32.5861 44.413 32.2183 44.813 31.6025C46.9056 28.381 49.0098 27.1833 52.577 27.1833C57.2548 27.1833 61.0603 30.5263 61.0603 34.6353C61.0606 42.6757 51.4694 51.2447 43 58.8067ZM49.5975 39.353H46.6469V36.4024C46.6469 35.7983 46.1572 35.3086 45.5531 35.3086H40.4467C39.8427 35.3086 39.353 35.7983 39.353 36.4024V39.353H36.4025C35.7984 39.353 35.3088 39.8427 35.3088 40.4467V45.5532C35.3088 46.1572 35.7984 46.6469 36.4025 46.6469H39.353V49.5974C39.353 50.2014 39.8427 50.6911 40.4467 50.6911H45.5531C46.1572 50.6911 46.6469 50.2014 46.6469 49.5974V46.6469H49.5975C50.2016 46.6469 50.6912 46.1572 50.6912 45.5532V40.4467C50.6912 39.8427 50.2016 39.353 49.5975 39.353ZM48.5037 44.4594H45.5531C44.9491 44.4594 44.4594 44.9491 44.4594 45.5532V48.5036H41.5405V45.5532C41.5405 44.9491 41.0508 44.4594 40.4467 44.4594H37.4963V41.5405H40.4467C41.0508 41.5405 41.5405 41.0508 41.5405 40.4467V37.4961H44.4594V40.4467C44.4594 41.0508 44.9491 41.5405 45.5531 41.5405H48.5037V44.4594Z" fill="#FD8A6D"/>
</g>
<defs>
<filter id="filter0_f_1042_31483" x="-1" y="-1" width="88" height="88" filterUnits="userSpaceOnUse" color-interpolation-filters="sRGB">
<feFlood flood-opacity="0" result="BackgroundImageFix"/>
<feBlend mode="normal" in="SourceGraphic" in2="BackgroundImageFix" result="shape"/>
<feGaussianBlur stdDeviation="2" result="effect1_foregroundBlur_1042_31483"/>
</filter>
</defs>
</svg>
