<svg width="80" height="86" viewBox="0 0 80 86" fill="none" xmlns="http://www.w3.org/2000/svg">
<path d="M72.5 75.5V70.5C72.5 70.1685 72.3683 69.8505 72.1339 69.6161C71.8995 69.3817 71.5815 69.25 71.25 69.25V51.75C71.2457 48.1046 69.7957 44.6097 67.218 42.032C64.6403 39.4543 61.1454 38.0043 57.5 38H53.75V33.7725C54.3865 33.0508 54.8012 32.1608 54.9443 31.2093C55.0875 30.2578 54.9531 29.2851 54.5572 28.4081C54.1613 27.5311 53.5207 26.7869 52.7124 26.265C51.904 25.743 50.9622 25.4653 50 25.4653C49.0378 25.4653 48.096 25.743 47.2876 26.265C46.4793 26.7869 45.8387 27.5311 45.4428 28.4081C45.0469 29.2851 44.9125 30.2578 45.0557 31.2093C45.1988 32.1608 45.6135 33.0508 46.25 33.7725V38H43.75C41.9819 38.0008 40.2308 38.3446 38.5938 39.0125C38.6923 38.6838 38.7449 38.3431 38.75 38C38.75 37.0054 38.3549 36.0516 37.6517 35.3483C36.9484 34.6451 35.9946 34.25 35 34.25H24.315C23.6994 31.5031 22.6657 28.8669 21.25 26.4338V23C21.25 22.6992 21.1416 22.4085 20.9446 22.1812C20.7476 21.9539 20.4753 21.8052 20.1775 21.7625L20.0525 21.745C21.0371 21.7312 21.9767 21.3307 22.6685 20.63C23.3603 19.9293 23.7488 18.9847 23.75 18V17.5225L25.5588 16.6188C25.8277 16.4839 26.0389 16.2565 26.1537 15.9785C26.2685 15.7004 26.2792 15.3903 26.1838 15.105L25 11.5475V8C25 7.00544 24.6049 6.05161 23.9017 5.34835C23.1984 4.64509 22.2446 4.25 21.25 4.25H13.75C12.7554 4.25 11.8016 4.64509 11.0984 5.34835C10.3951 6.05161 10 7.00544 10 8V10.5C10.001 13.0762 10.2555 15.6461 10.76 18.1725L11.23 20.5275C10.9391 20.5226 10.656 20.6214 10.4313 20.8062C10.296 20.9235 10.1875 21.0684 10.1131 21.2313C10.0387 21.3941 10.0001 21.571 10 21.75V25.02C8.38756 26.807 7.49658 29.1293 7.50001 31.5363V50.5C7.50001 50.8315 7.63171 51.1495 7.86613 51.3839C8.10055 51.6183 8.41849 51.75 8.75001 51.75H8.81126L10 75.525V80.5C10 80.8315 10.1317 81.1495 10.3661 81.3839C10.6005 81.6183 10.9185 81.75 11.25 81.75H25C25.1899 81.7499 25.3772 81.7066 25.5479 81.6234C25.7185 81.5401 25.8679 81.419 25.9848 81.2694C26.1017 81.1198 26.1829 80.9455 26.2224 80.7597C26.2618 80.574 26.2585 80.3817 26.2125 80.1975L25.8725 78.835C25.5994 77.745 25.0271 76.7531 24.2203 75.971C23.4135 75.1889 22.4042 74.6478 21.3063 74.4088L22.4388 51.75H23.75C24.0815 51.75 24.3995 51.6183 24.6339 51.3839C24.8683 51.1495 25 50.8315 25 50.5V41.695C25.375 41.7175 25.75 41.75 26.125 41.75H34.3438C32.9738 43.0308 31.8815 44.5792 31.1343 46.2993C30.3871 48.0194 30.001 49.8746 30 51.75V69.25H28.75C28.4185 69.25 28.1005 69.3817 27.8661 69.6161C27.6317 69.8505 27.5 70.1685 27.5 70.5V75.5C27.5 75.8315 27.6317 76.1495 27.8661 76.3839C28.1005 76.6183 28.4185 76.75 28.75 76.75H31.48C31.332 77.1503 31.2542 77.5732 31.25 78C31.25 78.9946 31.6451 79.9484 32.3484 80.6516C33.0516 81.3549 34.0054 81.75 35 81.75C35.9946 81.75 36.9484 81.3549 37.6517 80.6516C38.3549 79.9484 38.75 78.9946 38.75 78C38.7459 77.5732 38.6681 77.1503 38.52 76.75H61.48C61.332 77.1503 61.2542 77.5732 61.25 78C61.25 78.9946 61.6451 79.9484 62.3484 80.6516C63.0516 81.3549 64.0054 81.75 65 81.75C65.9946 81.75 66.9484 81.3549 67.6517 80.6516C68.3549 79.9484 68.75 78.9946 68.75 78C68.7459 77.5732 68.6681 77.1503 68.52 76.75H71.25C71.5815 76.75 71.8995 76.6183 72.1339 76.3839C72.3683 76.1495 72.5 75.8315 72.5 75.5ZM36.25 38C36.25 38.3315 36.1183 38.6495 35.8839 38.8839C35.6495 39.1183 35.3315 39.25 35 39.25H33.75V36.75H35C35.3315 36.75 35.6495 36.8817 35.8839 37.1161C36.1183 37.3505 36.25 37.6685 36.25 38ZM13.125 17.1562C12.7942 15.3712 12.5958 13.5642 12.5313 11.75H16.98C16.5028 12.6044 16.2515 13.5664 16.25 14.545C16.2511 14.9463 16.1313 15.3387 15.9064 15.6711C15.6815 16.0035 15.3617 16.2605 14.9888 16.4088L13.125 17.1562ZM12.5 23.1912L18.75 24.0838V25.3088L12.5 24.4162V23.1912ZM21.9413 15.6312C21.7335 15.7351 21.5587 15.8948 21.4366 16.0924C21.3145 16.29 21.2499 16.5177 21.25 16.75V18C21.25 18.3315 21.1183 18.6495 20.8839 18.8839C20.6495 19.1183 20.3315 19.25 20 19.25H18.75C18.4185 19.25 18.1005 19.3817 17.8661 19.6161C17.6317 19.8505 17.5 20.1685 17.5 20.5V21.375L13.75 20.84V20.5C13.7508 20.416 13.7424 20.3322 13.725 20.25L13.6 19.6488L15.9125 18.7238C16.7506 18.3929 17.4695 17.8173 17.9757 17.0719C18.4818 16.3266 18.7516 15.446 18.75 14.545C18.7512 13.9783 18.9012 13.4218 19.1851 12.9312C19.4689 12.4407 19.8767 12.0334 20.3675 11.75H22.5C22.4999 11.8842 22.5214 12.0176 22.5638 12.145L23.4713 14.8675L21.9413 15.6312ZM12.5 8C12.5 7.66848 12.6317 7.35054 12.8661 7.11612C13.1005 6.8817 13.4185 6.75 13.75 6.75H21.25C21.5815 6.75 21.8995 6.8817 22.1339 7.11612C22.3683 7.35054 22.5 7.66848 22.5 8V9.25H12.5V8ZM23.3938 79.25H12.5V76.75H20C20.7587 76.7489 21.4978 76.9911 22.1086 77.4411C22.7195 77.891 23.1699 78.5251 23.3938 79.25ZM18.8113 74.25H12.4363L11.3113 51.75H19.9363L18.8113 74.25ZM22.5 49.25H10V31.5363C9.99644 29.8119 10.6096 28.1431 11.7288 26.8313L19.2038 27.8988C19.6726 28.7241 20.0941 29.5755 20.4663 30.4487L19.42 29.4025C18.5226 28.5051 17.3054 28.0009 16.0363 28.0009C14.7671 28.0009 13.5499 28.5051 12.6525 29.4025C11.7551 30.2999 11.2509 31.5171 11.2509 32.7863C11.2509 34.0554 11.7551 35.2726 12.6525 36.17C15.3348 38.8638 18.7664 40.6872 22.5 41.4025V49.25ZM14.42 34.4025C14.2002 34.192 14.0247 33.9396 13.9037 33.6604C13.7827 33.3811 13.7187 33.0804 13.7154 32.7761C13.7122 32.4717 13.7697 32.1698 13.8847 31.888C13.9996 31.6062 14.1697 31.3501 14.3849 31.1349C14.6001 30.9197 14.8562 30.7496 15.138 30.6346C15.4198 30.5197 15.7217 30.4621 16.0261 30.4654C16.3304 30.4687 16.6311 30.5327 16.9104 30.6537C17.1896 30.7747 17.442 30.9502 17.6525 31.17L22.8663 36.3838C23.1006 36.6182 23.4185 36.7499 23.75 36.75H31.25V39.25H26.125C23.9504 39.2562 21.7961 38.8309 19.7869 37.9989C17.7777 37.1668 15.9535 35.9444 14.42 34.4025ZM50 28C50.4945 28 50.9778 28.1466 51.3889 28.4213C51.8001 28.696 52.1205 29.0865 52.3097 29.5433C52.4989 30.0001 52.5484 30.5028 52.452 30.9877C52.3555 31.4727 52.1174 31.9181 51.7678 32.2678C51.4181 32.6174 50.9727 32.8555 50.4877 32.952C50.0028 33.0484 49.5001 32.9989 49.0433 32.8097C48.5865 32.6205 48.196 32.3 47.9213 31.8889C47.6466 31.4778 47.5 30.9945 47.5 30.5C47.5 29.837 47.7634 29.2011 48.2322 28.7322C48.7011 28.2634 49.337 28 50 28ZM48.75 35.3225C49.5665 35.5592 50.4335 35.5592 51.25 35.3225V38H48.75V35.3225ZM32.5 51.75C32.5033 48.7673 33.6896 45.9078 35.7987 43.7987C37.9078 41.6896 40.7673 40.5033 43.75 40.5H57.5C60.4827 40.5033 63.3422 41.6896 65.4513 43.7987C67.5604 45.9078 68.7467 48.7673 68.75 51.75V69.25H66.25V51.75C66.2474 49.4302 65.3246 47.2061 63.6843 45.5657C62.0439 43.9254 59.8198 43.0026 57.5 43H43.75C41.4302 43.0026 39.2061 43.9254 37.5657 45.5657C35.9254 47.2061 35.0027 49.4302 35 51.75V69.25H32.5V51.75ZM42.5 66.75V58C42.5 57.337 42.7634 56.7011 43.2322 56.2322C43.7011 55.7634 44.337 55.5 45 55.5V69.25C44.337 69.25 43.7011 68.9866 43.2322 68.5178C42.7634 68.0489 42.5 67.413 42.5 66.75ZM47.5 55.5H53.75V69.25H47.5V55.5ZM58.75 66.75C58.75 67.413 58.4866 68.0489 58.0178 68.5178C57.5489 68.9866 56.9131 69.25 56.25 69.25V55.5C56.9131 55.5 57.5489 55.7634 58.0178 56.2322C58.4866 56.7011 58.75 57.337 58.75 58V66.75ZM53.75 53H47.5V50.5H53.75V53ZM56.25 53V49.25C56.25 48.9185 56.1183 48.6005 55.8839 48.3661C55.6495 48.1317 55.3315 48 55 48H46.25C45.9185 48 45.6005 48.1317 45.3661 48.3661C45.1317 48.6005 45 48.9185 45 49.25V53C43.6739 53 42.4022 53.5268 41.4645 54.4645C40.5268 55.4021 40 56.6739 40 58V66.75C40.0052 67.6303 40.2451 68.4933 40.695 69.25H37.5V51.75C37.502 50.093 38.1611 48.5044 39.3328 47.3328C40.5045 46.1611 42.093 45.502 43.75 45.5H57.5C59.157 45.502 60.7456 46.1611 61.9172 47.3328C63.0889 48.5044 63.748 50.093 63.75 51.75V69.25H60.555C61.0049 68.4933 61.2448 67.6303 61.25 66.75V58C61.25 56.6739 60.7232 55.4021 59.7855 54.4645C58.8479 53.5268 57.5761 53 56.25 53ZM36.25 78C36.25 78.2472 36.1767 78.4889 36.0393 78.6945C35.902 78.9 35.7068 79.0602 35.4784 79.1548C35.25 79.2495 34.9986 79.2742 34.7561 79.226C34.5137 79.1777 34.2909 79.0587 34.1161 78.8839C33.9413 78.7091 33.8223 78.4863 33.774 78.2439C33.7258 78.0014 33.7506 77.7501 33.8452 77.5216C33.9398 77.2932 34.1 77.098 34.3055 76.9607C34.5111 76.8233 34.7528 76.75 35 76.75C35.3315 76.75 35.6495 76.8817 35.8839 77.1161C36.1183 77.3505 36.25 77.6685 36.25 78ZM66.25 78C66.25 78.2472 66.1767 78.4889 66.0393 78.6945C65.902 78.9 65.7068 79.0602 65.4784 79.1548C65.25 79.2495 64.9986 79.2742 64.7561 79.226C64.5137 79.1777 64.2909 79.0587 64.1161 78.8839C63.9413 78.7091 63.8223 78.4863 63.774 78.2439C63.7258 78.0014 63.7506 77.7501 63.8452 77.5216C63.9398 77.2932 64.1 77.098 64.3055 76.9607C64.5111 76.8233 64.7528 76.75 65 76.75C65.3315 76.75 65.6495 76.8817 65.8839 77.1161C66.1183 77.3505 66.25 77.6685 66.25 78ZM70 74.25H30V71.75H70V74.25Z" fill="#FD8A6D"/>
<g filter="url(#filter0_f_1042_31415)">
<path d="M72.5 75.5V70.5C72.5 70.1685 72.3683 69.8505 72.1339 69.6161C71.8995 69.3817 71.5815 69.25 71.25 69.25V51.75C71.2457 48.1046 69.7957 44.6097 67.218 42.032C64.6403 39.4543 61.1454 38.0043 57.5 38H53.75V33.7725C54.3865 33.0508 54.8012 32.1608 54.9443 31.2093C55.0875 30.2578 54.9531 29.2851 54.5572 28.4081C54.1613 27.5311 53.5207 26.7869 52.7124 26.265C51.904 25.743 50.9622 25.4653 50 25.4653C49.0378 25.4653 48.096 25.743 47.2876 26.265C46.4793 26.7869 45.8387 27.5311 45.4428 28.4081C45.0469 29.2851 44.9125 30.2578 45.0557 31.2093C45.1988 32.1608 45.6135 33.0508 46.25 33.7725V38H43.75C41.9819 38.0008 40.2308 38.3446 38.5938 39.0125C38.6923 38.6838 38.7449 38.3431 38.75 38C38.75 37.0054 38.3549 36.0516 37.6517 35.3483C36.9484 34.6451 35.9946 34.25 35 34.25H24.315C23.6994 31.5031 22.6657 28.8669 21.25 26.4338V23C21.25 22.6992 21.1416 22.4085 20.9446 22.1812C20.7476 21.9539 20.4753 21.8052 20.1775 21.7625L20.0525 21.745C21.0371 21.7312 21.9767 21.3307 22.6685 20.63C23.3603 19.9293 23.7488 18.9847 23.75 18V17.5225L25.5588 16.6188C25.8277 16.4839 26.0389 16.2565 26.1537 15.9785C26.2685 15.7004 26.2792 15.3903 26.1838 15.105L25 11.5475V8C25 7.00544 24.6049 6.05161 23.9017 5.34835C23.1984 4.64509 22.2446 4.25 21.25 4.25H13.75C12.7554 4.25 11.8016 4.64509 11.0984 5.34835C10.3951 6.05161 10 7.00544 10 8V10.5C10.001 13.0762 10.2555 15.6461 10.76 18.1725L11.23 20.5275C10.9391 20.5226 10.656 20.6214 10.4313 20.8062C10.296 20.9235 10.1875 21.0684 10.1131 21.2313C10.0387 21.3941 10.0001 21.571 10 21.75V25.02C8.38756 26.807 7.49658 29.1293 7.50001 31.5363V50.5C7.50001 50.8315 7.63171 51.1495 7.86613 51.3839C8.10055 51.6183 8.41849 51.75 8.75001 51.75H8.81126L10 75.525V80.5C10 80.8315 10.1317 81.1495 10.3661 81.3839C10.6005 81.6183 10.9185 81.75 11.25 81.75H25C25.1899 81.7499 25.3772 81.7066 25.5479 81.6234C25.7185 81.5401 25.8679 81.419 25.9848 81.2694C26.1017 81.1198 26.1829 80.9455 26.2224 80.7597C26.2618 80.574 26.2585 80.3817 26.2125 80.1975L25.8725 78.835C25.5994 77.745 25.0271 76.7531 24.2203 75.971C23.4135 75.1889 22.4042 74.6478 21.3063 74.4088L22.4388 51.75H23.75C24.0815 51.75 24.3995 51.6183 24.6339 51.3839C24.8683 51.1495 25 50.8315 25 50.5V41.695C25.375 41.7175 25.75 41.75 26.125 41.75H34.3438C32.9738 43.0308 31.8815 44.5792 31.1343 46.2993C30.3871 48.0194 30.001 49.8746 30 51.75V69.25H28.75C28.4185 69.25 28.1005 69.3817 27.8661 69.6161C27.6317 69.8505 27.5 70.1685 27.5 70.5V75.5C27.5 75.8315 27.6317 76.1495 27.8661 76.3839C28.1005 76.6183 28.4185 76.75 28.75 76.75H31.48C31.332 77.1503 31.2542 77.5732 31.25 78C31.25 78.9946 31.6451 79.9484 32.3484 80.6516C33.0516 81.3549 34.0054 81.75 35 81.75C35.9946 81.75 36.9484 81.3549 37.6517 80.6516C38.3549 79.9484 38.75 78.9946 38.75 78C38.7459 77.5732 38.6681 77.1503 38.52 76.75H61.48C61.332 77.1503 61.2542 77.5732 61.25 78C61.25 78.9946 61.6451 79.9484 62.3484 80.6516C63.0516 81.3549 64.0054 81.75 65 81.75C65.9946 81.75 66.9484 81.3549 67.6517 80.6516C68.3549 79.9484 68.75 78.9946 68.75 78C68.7459 77.5732 68.6681 77.1503 68.52 76.75H71.25C71.5815 76.75 71.8995 76.6183 72.1339 76.3839C72.3683 76.1495 72.5 75.8315 72.5 75.5ZM36.25 38C36.25 38.3315 36.1183 38.6495 35.8839 38.8839C35.6495 39.1183 35.3315 39.25 35 39.25H33.75V36.75H35C35.3315 36.75 35.6495 36.8817 35.8839 37.1161C36.1183 37.3505 36.25 37.6685 36.25 38ZM13.125 17.1562C12.7942 15.3712 12.5958 13.5642 12.5313 11.75H16.98C16.5028 12.6044 16.2515 13.5664 16.25 14.545C16.2511 14.9463 16.1313 15.3387 15.9064 15.6711C15.6815 16.0035 15.3617 16.2605 14.9888 16.4088L13.125 17.1562ZM12.5 23.1912L18.75 24.0838V25.3088L12.5 24.4162V23.1912ZM21.9413 15.6312C21.7335 15.7351 21.5587 15.8948 21.4366 16.0924C21.3145 16.29 21.2499 16.5177 21.25 16.75V18C21.25 18.3315 21.1183 18.6495 20.8839 18.8839C20.6495 19.1183 20.3315 19.25 20 19.25H18.75C18.4185 19.25 18.1005 19.3817 17.8661 19.6161C17.6317 19.8505 17.5 20.1685 17.5 20.5V21.375L13.75 20.84V20.5C13.7508 20.416 13.7424 20.3322 13.725 20.25L13.6 19.6488L15.9125 18.7238C16.7506 18.3929 17.4695 17.8173 17.9757 17.0719C18.4818 16.3266 18.7516 15.446 18.75 14.545C18.7512 13.9783 18.9012 13.4218 19.1851 12.9312C19.4689 12.4407 19.8767 12.0334 20.3675 11.75H22.5C22.4999 11.8842 22.5214 12.0176 22.5638 12.145L23.4713 14.8675L21.9413 15.6312ZM12.5 8C12.5 7.66848 12.6317 7.35054 12.8661 7.11612C13.1005 6.8817 13.4185 6.75 13.75 6.75H21.25C21.5815 6.75 21.8995 6.8817 22.1339 7.11612C22.3683 7.35054 22.5 7.66848 22.5 8V9.25H12.5V8ZM23.3938 79.25H12.5V76.75H20C20.7587 76.7489 21.4978 76.9911 22.1086 77.4411C22.7195 77.891 23.1699 78.5251 23.3938 79.25ZM18.8113 74.25H12.4363L11.3113 51.75H19.9363L18.8113 74.25ZM22.5 49.25H10V31.5363C9.99644 29.8119 10.6096 28.1431 11.7288 26.8313L19.2038 27.8988C19.6726 28.7241 20.0941 29.5755 20.4663 30.4487L19.42 29.4025C18.5226 28.5051 17.3054 28.0009 16.0363 28.0009C14.7671 28.0009 13.5499 28.5051 12.6525 29.4025C11.7551 30.2999 11.2509 31.5171 11.2509 32.7863C11.2509 34.0554 11.7551 35.2726 12.6525 36.17C15.3348 38.8638 18.7664 40.6872 22.5 41.4025V49.25ZM14.42 34.4025C14.2002 34.192 14.0247 33.9396 13.9037 33.6604C13.7827 33.3811 13.7187 33.0804 13.7154 32.7761C13.7122 32.4717 13.7697 32.1698 13.8847 31.888C13.9996 31.6062 14.1697 31.3501 14.3849 31.1349C14.6001 30.9197 14.8562 30.7496 15.138 30.6346C15.4198 30.5197 15.7217 30.4621 16.0261 30.4654C16.3304 30.4687 16.6311 30.5327 16.9104 30.6537C17.1896 30.7747 17.442 30.9502 17.6525 31.17L22.8663 36.3838C23.1006 36.6182 23.4185 36.7499 23.75 36.75H31.25V39.25H26.125C23.9504 39.2562 21.7961 38.8309 19.7869 37.9989C17.7777 37.1668 15.9535 35.9444 14.42 34.4025ZM50 28C50.4945 28 50.9778 28.1466 51.3889 28.4213C51.8001 28.696 52.1205 29.0865 52.3097 29.5433C52.4989 30.0001 52.5484 30.5028 52.452 30.9877C52.3555 31.4727 52.1174 31.9181 51.7678 32.2678C51.4181 32.6174 50.9727 32.8555 50.4877 32.952C50.0028 33.0484 49.5001 32.9989 49.0433 32.8097C48.5865 32.6205 48.196 32.3 47.9213 31.8889C47.6466 31.4778 47.5 30.9945 47.5 30.5C47.5 29.837 47.7634 29.2011 48.2322 28.7322C48.7011 28.2634 49.337 28 50 28ZM48.75 35.3225C49.5665 35.5592 50.4335 35.5592 51.25 35.3225V38H48.75V35.3225ZM32.5 51.75C32.5033 48.7673 33.6896 45.9078 35.7987 43.7987C37.9078 41.6896 40.7673 40.5033 43.75 40.5H57.5C60.4827 40.5033 63.3422 41.6896 65.4513 43.7987C67.5604 45.9078 68.7467 48.7673 68.75 51.75V69.25H66.25V51.75C66.2474 49.4302 65.3246 47.2061 63.6843 45.5657C62.0439 43.9254 59.8198 43.0026 57.5 43H43.75C41.4302 43.0026 39.2061 43.9254 37.5657 45.5657C35.9254 47.2061 35.0027 49.4302 35 51.75V69.25H32.5V51.75ZM42.5 66.75V58C42.5 57.337 42.7634 56.7011 43.2322 56.2322C43.7011 55.7634 44.337 55.5 45 55.5V69.25C44.337 69.25 43.7011 68.9866 43.2322 68.5178C42.7634 68.0489 42.5 67.413 42.5 66.75ZM47.5 55.5H53.75V69.25H47.5V55.5ZM58.75 66.75C58.75 67.413 58.4866 68.0489 58.0178 68.5178C57.5489 68.9866 56.9131 69.25 56.25 69.25V55.5C56.9131 55.5 57.5489 55.7634 58.0178 56.2322C58.4866 56.7011 58.75 57.337 58.75 58V66.75ZM53.75 53H47.5V50.5H53.75V53ZM56.25 53V49.25C56.25 48.9185 56.1183 48.6005 55.8839 48.3661C55.6495 48.1317 55.3315 48 55 48H46.25C45.9185 48 45.6005 48.1317 45.3661 48.3661C45.1317 48.6005 45 48.9185 45 49.25V53C43.6739 53 42.4022 53.5268 41.4645 54.4645C40.5268 55.4021 40 56.6739 40 58V66.75C40.0052 67.6303 40.2451 68.4933 40.695 69.25H37.5V51.75C37.502 50.093 38.1611 48.5044 39.3328 47.3328C40.5045 46.1611 42.093 45.502 43.75 45.5H57.5C59.157 45.502 60.7456 46.1611 61.9172 47.3328C63.0889 48.5044 63.748 50.093 63.75 51.75V69.25H60.555C61.0049 68.4933 61.2448 67.6303 61.25 66.75V58C61.25 56.6739 60.7232 55.4021 59.7855 54.4645C58.8479 53.5268 57.5761 53 56.25 53ZM36.25 78C36.25 78.2472 36.1767 78.4889 36.0393 78.6945C35.902 78.9 35.7068 79.0602 35.4784 79.1548C35.25 79.2495 34.9986 79.2742 34.7561 79.226C34.5137 79.1777 34.2909 79.0587 34.1161 78.8839C33.9413 78.7091 33.8223 78.4863 33.774 78.2439C33.7258 78.0014 33.7506 77.7501 33.8452 77.5216C33.9398 77.2932 34.1 77.098 34.3055 76.9607C34.5111 76.8233 34.7528 76.75 35 76.75C35.3315 76.75 35.6495 76.8817 35.8839 77.1161C36.1183 77.3505 36.25 77.6685 36.25 78ZM66.25 78C66.25 78.2472 66.1767 78.4889 66.0393 78.6945C65.902 78.9 65.7068 79.0602 65.4784 79.1548C65.25 79.2495 64.9986 79.2742 64.7561 79.226C64.5137 79.1777 64.2909 79.0587 64.1161 78.8839C63.9413 78.7091 63.8223 78.4863 63.774 78.2439C63.7258 78.0014 63.7506 77.7501 63.8452 77.5216C63.9398 77.2932 64.1 77.098 64.3055 76.9607C64.5111 76.8233 64.7528 76.75 65 76.75C65.3315 76.75 65.6495 76.8817 65.8839 77.1161C66.1183 77.3505 66.25 77.6685 66.25 78ZM70 74.25H30V71.75H70V74.25Z" fill="#FD8A6D"/>
</g>
<defs>
<filter id="filter0_f_1042_31415" x="-4" y="-1" width="88" height="88" filterUnits="userSpaceOnUse" color-interpolation-filters="sRGB">
<feFlood flood-opacity="0" result="BackgroundImageFix"/>
<feBlend mode="normal" in="SourceGraphic" in2="BackgroundImageFix" result="shape"/>
<feGaussianBlur stdDeviation="2" result="effect1_foregroundBlur_1042_31415"/>
</filter>
</defs>
</svg>
