<svg xmlns="http://www.w3.org/2000/svg" width="68" height="74" fill="none" viewBox="0 0 68 74" preserveAspectRatio="xMidYMid meet"><g fill="#FD8A6D" filter="url(#a)"><path d="M43.577 69.447H5.59a.985.985 0 0 1-.985-.985v-8.58c0-2.477.721-4.915 2.145-6.943a11.77 11.77 0 0 1 6.235-4.527l6.763-2.066v-2.293c0-.525.404-.984.93-.998a.954.954 0 0 1 .979.953v3.126a.99.99 0 0 1-.697.943l-7.46 2.28a9.82 9.82 0 0 0-6.986 9.44v7.741h36.012v-7.742c0-4.369-2.784-8.162-6.928-9.44l-7.397-2.28a.98.98 0 0 1-.69-.94v-3.083c0-.525.404-.984.929-.998a.954.954 0 0 1 .98.954v2.337l6.762 2.066a11.76 11.76 0 0 1 6.057 4.28 11.76 11.76 0 0 1 2.323 7.043v8.727a.985.985 0 0 1-.985.985"/><path d="M33.364 36.98c0 5.1-4.24 9.258-9.331 8.984a8.77 8.77 0 0 1-5.767-2.579 8.78 8.78 0 0 1-2.59-6.252v-1.716c0-.472.336-.878.8-.965.075-.014 7.482-1.455 9.218-5.701a.982.982 0 0 1 1.867.16c.59 2.683 2.097 5.57 4.015 5.57q.28 0 .564-.072a.9.9 0 0 1 .313-.033.99.99 0 0 1 .91.984zm-15.78-.786v.936c0 1.854.722 3.595 2.032 4.903a6.9 6.9 0 0 0 5.41 2.015c3.54-.25 6.429-3.452 6.429-7.001v-.615c-2.454-.106-4.176-2.43-5.153-4.987-2.472 2.948-6.895 4.298-8.718 4.749"/><path d="M16.67 36.397a.99.99 0 0 1-.876-.534l-2.045-3.971c-.968-1.88-1.245-3.904-.801-5.855.4-1.763 1.395-3.413 2.8-4.645 1.402-1.23 3.16-1.998 4.952-2.165 1.983-.184 3.947.353 5.68 1.554q.164.114.332.235c.216.156.52.128.694-.065 1.458-1.62 4.08-1.4 7.013.587 1.794 1.215 2.12 4.052.967 8.43a41.6 41.6 0 0 1-2.039 5.791.985.985 0 0 1-1.796-.809c.012-.026 1.188-2.652 1.936-5.504.872-3.324.81-5.613-.173-6.278-1.578-1.069-3.574-1.866-4.444-.9a2.487 2.487 0 0 1-3.311.345l-.302-.214c-3.161-2.192-6.398-1.115-8.21.473-1.82 1.597-3.317 4.68-1.547 8.118l2.045 3.971a.985.985 0 0 1-.875 1.436m7.735 16.677c-3.088 0-5.858-2.065-6.736-5.022a.985.985 0 0 1 1.888-.561 5.09 5.09 0 0 0 4.848 3.614 5.074 5.074 0 0 0 4.87-3.687.984.984 0 1 1 1.896.533 7.05 7.05 0 0 1-6.766 5.123m33.982-5.864a1 1 0 0 1-.493-.131l-12.41-7.165c-.304-.176-.492-.501-.413-.853v-8.273c-.079-.352.109-.677.414-.852l12.409-7.165a.985.985 0 1 1 .956 1.722l-11.87 6.864v7.136l11.88 6.87a.984.984 0 0 1-.473 1.848"/><path d="M45.993 40.053h-5.931c-2.783 0-5.128-2.19-5.19-4.973a5.096 5.096 0 0 1 5.089-5.207h5.987c.525 0 .985.404.999.93a.954.954 0 0 1-.954.979H40.02c-1.4 0-2.839 1.107-3.135 2.474a3.187 3.187 0 0 0 3.105 3.888h5.957c.525 0 .985.405.999.93a.954.954 0 0 1-.954.98"/><path d="M41.815 48.706h-1.468c-.678 0-1.3-.34-1.666-.91a2 2 0 0 1-.13-1.924c.321-.695.336-1.369.045-2.06-.654-1.558-1.035-3.152-1.132-4.737a.954.954 0 0 1 1.906-.117c.083 1.37.415 2.755.987 4.115.502 1.197.477 2.407-.072 3.598a.1.1 0 0 0 .004.096c.018.028.038.03.058.03h1.468c.02 0 .04-.002.058-.03q.028-.044.003-.097c-.549-1.19-.573-2.4-.071-3.597.528-1.26.853-2.542.964-3.81a.955.955 0 0 1 1.901.166 14.6 14.6 0 0 1-1.105 4.383c-.29.691-.276 1.365.045 2.06.289.628.24 1.347-.13 1.925-.365.57-.987.91-1.665.91m17.5-.959c-3.233 0-4.096-8.06-4.096-12.822 0-4.763.863-12.823 4.096-12.823s4.096 8.06 4.096 12.823c0 4.762-.862 12.822-4.096 12.822m0-23.661c-.22.14-.817.903-1.342 3.095-.506 2.111-.784 4.861-.784 7.744s.278 5.632.784 7.743c.525 2.191 1.123 2.956 1.342 3.095.22-.14.817-.904 1.342-3.095.506-2.111.785-4.86.785-7.743s-.279-5.633-.785-7.744c-.525-2.192-1.123-2.956-1.342-3.095M40.416 35.6H36.1c-.525 0-.985-.404-.998-.93a.955.955 0 0 1 .954-.979h3.415v-2.679c0-.525.404-.985.93-.998a.954.954 0 0 1 .979.954v3.667a.965.965 0 0 1-.965.965"/><path d="M56.283 38.575a.985.985 0 0 1-.029-1.969 1.673 1.673 0 0 0 1.632-1.68c0-.916-.717-1.655-1.632-1.681a.985.985 0 1 1 .058-1.97 3.633 3.633 0 0 1 3.543 3.65 3.633 3.633 0 0 1-3.572 3.65M41.095 27.452a1 1 0 0 1-.63-.226 1 1 0 0 1-.357-.785v-5.477h-3.087a.985.985 0 0 1-.985-.985V5.534c0-.544.44-.985.985-.985h21.444c.544 0 .985.44.985.985V19.98c0 .543-.44.984-.985.984h-10.46l-6.212 6.2a1 1 0 0 1-.698.288m-3.023-8.524h3.087c.544 0 .985.441.985.985v4.11l4.808-4.806a1 1 0 0 1 .696-.289h9.766V6.458H38.072z"/><path d="M47.762 17.134a1 1 0 0 1-.564-.178l-3.828-2.679a3.36 3.36 0 0 1-.822-4.657 3.35 3.35 0 0 1 4.658-.822l.556.39.557-.39a3.35 3.35 0 0 1 4.657.822 3.36 3.36 0 0 1-.822 4.658l-3.827 2.678a1 1 0 0 1-.565.178m-2.472-6.97c-.45 0-.871.218-1.128.585a1.38 1.38 0 0 0 .337 1.914l3.263 2.284 3.263-2.283q.084-.059.152-.124l.004-.003a1.38 1.38 0 0 0 .181-1.788 1.377 1.377 0 0 0-1.913-.338l-1.122.785a.985.985 0 0 1-1.13 0l-1.121-.785a1.36 1.36 0 0 0-.786-.248"/></g><path fill="#FD8A6D" d="M43.577 69.447H5.59a.985.985 0 0 1-.985-.985v-8.58c0-2.477.721-4.915 2.145-6.943a11.77 11.77 0 0 1 6.235-4.527l6.763-2.066v-2.293c0-.525.404-.984.93-.998a.954.954 0 0 1 .979.953v3.126a.99.99 0 0 1-.697.943l-7.46 2.28a9.82 9.82 0 0 0-6.986 9.44v7.741h36.012v-7.742c0-4.369-2.784-8.162-6.928-9.44l-7.397-2.28a.98.98 0 0 1-.69-.94v-3.083c0-.525.404-.984.929-.998a.954.954 0 0 1 .98.954v2.337l6.762 2.066a11.76 11.76 0 0 1 6.057 4.28 11.76 11.76 0 0 1 2.323 7.043v8.727a.985.985 0 0 1-.985.985"/><path fill="#FD8A6D" d="M33.364 36.98c0 5.1-4.24 9.258-9.331 8.984a8.77 8.77 0 0 1-5.767-2.579 8.78 8.78 0 0 1-2.59-6.252v-1.716c0-.472.336-.878.8-.965.075-.014 7.482-1.455 9.218-5.701a.982.982 0 0 1 1.867.16c.59 2.683 2.097 5.57 4.015 5.57q.28 0 .564-.072a.9.9 0 0 1 .313-.033.99.99 0 0 1 .91.984zm-15.78-.786v.936c0 1.854.722 3.595 2.032 4.903a6.9 6.9 0 0 0 5.41 2.015c3.54-.25 6.429-3.452 6.429-7.001v-.615c-2.454-.106-4.176-2.43-5.153-4.987-2.472 2.948-6.895 4.298-8.718 4.749"/><path fill="#FD8A6D" d="M16.67 36.397a.99.99 0 0 1-.876-.534l-2.045-3.971c-.968-1.88-1.245-3.904-.801-5.855.4-1.763 1.395-3.413 2.8-4.645 1.402-1.23 3.16-1.998 4.952-2.165 1.983-.184 3.947.353 5.68 1.554q.164.114.332.235c.216.156.52.128.694-.065 1.458-1.62 4.08-1.4 7.013.587 1.794 1.215 2.12 4.052.967 8.43a41.6 41.6 0 0 1-2.039 5.791.985.985 0 0 1-1.796-.809c.012-.026 1.188-2.652 1.936-5.504.872-3.324.81-5.613-.173-6.278-1.578-1.069-3.574-1.866-4.444-.9a2.487 2.487 0 0 1-3.311.345l-.302-.214c-3.161-2.192-6.398-1.115-8.21.473-1.82 1.597-3.317 4.68-1.547 8.118l2.045 3.971a.985.985 0 0 1-.875 1.436m7.735 16.677c-3.088 0-5.858-2.065-6.736-5.022a.985.985 0 0 1 1.888-.561 5.09 5.09 0 0 0 4.848 3.614 5.074 5.074 0 0 0 4.87-3.687.984.984 0 1 1 1.896.533 7.05 7.05 0 0 1-6.766 5.123m33.982-5.864a1 1 0 0 1-.493-.131l-12.41-7.165c-.304-.176-.492-.501-.413-.853v-8.273c-.079-.352.109-.677.414-.852l12.409-7.165a.985.985 0 1 1 .956 1.722l-11.87 6.864v7.136l11.88 6.87a.984.984 0 0 1-.473 1.848"/><path fill="#FD8A6D" d="M45.993 40.053h-5.931c-2.783 0-5.128-2.19-5.19-4.973a5.096 5.096 0 0 1 5.089-5.207h5.987c.525 0 .985.404.999.93a.954.954 0 0 1-.954.979H40.02c-1.4 0-2.839 1.107-3.135 2.474a3.187 3.187 0 0 0 3.105 3.888h5.957c.525 0 .985.405.999.93a.954.954 0 0 1-.954.98"/><path fill="#FD8A6D" d="M41.815 48.706h-1.468c-.678 0-1.3-.34-1.666-.91a2 2 0 0 1-.13-1.924c.321-.695.336-1.369.045-2.06-.654-1.558-1.035-3.152-1.132-4.737a.954.954 0 0 1 1.906-.117c.083 1.37.415 2.755.987 4.115.502 1.197.477 2.407-.072 3.598a.1.1 0 0 0 .004.096c.018.028.038.03.058.03h1.468c.02 0 .04-.002.058-.03q.028-.044.003-.097c-.549-1.19-.573-2.4-.071-3.597.528-1.26.853-2.542.964-3.81a.955.955 0 0 1 1.901.166 14.6 14.6 0 0 1-1.105 4.383c-.29.691-.276 1.365.045 2.06.289.628.24 1.347-.13 1.925-.365.57-.987.91-1.665.91m17.5-.959c-3.233 0-4.096-8.06-4.096-12.822 0-4.763.863-12.823 4.096-12.823s4.096 8.06 4.096 12.823c0 4.762-.862 12.822-4.096 12.822m0-23.661c-.22.14-.817.903-1.342 3.095-.506 2.111-.784 4.861-.784 7.744s.278 5.632.784 7.743c.525 2.191 1.123 2.956 1.342 3.095.22-.14.817-.904 1.342-3.095.506-2.111.785-4.86.785-7.743s-.279-5.633-.785-7.744c-.525-2.192-1.123-2.956-1.342-3.095M40.416 35.6H36.1c-.525 0-.985-.404-.998-.93a.955.955 0 0 1 .954-.979h3.415v-2.679c0-.525.404-.985.93-.998a.954.954 0 0 1 .979.954v3.667a.965.965 0 0 1-.965.965"/><path fill="#FD8A6D" d="M56.283 38.575a.985.985 0 0 1-.029-1.969 1.673 1.673 0 0 0 1.632-1.68c0-.916-.717-1.655-1.632-1.681a.985.985 0 1 1 .058-1.97 3.633 3.633 0 0 1 3.543 3.65 3.633 3.633 0 0 1-3.572 3.65M41.095 27.452a1 1 0 0 1-.63-.226 1 1 0 0 1-.357-.785v-5.477h-3.087a.985.985 0 0 1-.985-.985V5.534c0-.544.44-.985.985-.985h21.444c.544 0 .985.44.985.985V19.98c0 .543-.44.984-.985.984h-10.46l-6.212 6.2a1 1 0 0 1-.698.288m-3.023-8.524h3.087c.544 0 .985.441.985.985v4.11l4.808-4.806a1 1 0 0 1 .696-.289h9.766V6.458H38.072z"/><path fill="#FD8A6D" d="M47.762 17.134a1 1 0 0 1-.564-.178l-3.828-2.679a3.36 3.36 0 0 1-.822-4.657 3.35 3.35 0 0 1 4.658-.822l.556.39.557-.39a3.35 3.35 0 0 1 4.657.822 3.36 3.36 0 0 1-.822 4.658l-3.827 2.678a1 1 0 0 1-.565.178m-2.472-6.97c-.45 0-.871.218-1.128.585a1.38 1.38 0 0 0 .337 1.914l3.263 2.284 3.263-2.283q.084-.059.152-.124l.004-.003a1.38 1.38 0 0 0 .181-1.788 1.377 1.377 0 0 0-1.913-.338l-1.122.785a.985.985 0 0 1-1.13 0l-1.121-.785a1.36 1.36 0 0 0-.786-.248"/><defs><filter id="a" width="76" height="76" x="-4" y="-1" color-interpolation-filters="sRGB" filterUnits="userSpaceOnUse"><feFlood flood-opacity="0" result="BackgroundImageFix"/><feBlend in="SourceGraphic" in2="BackgroundImageFix" result="shape"/><feGaussianBlur result="effect1_foregroundBlur_1012_30754" stdDeviation="2"/></filter></defs></svg>