<svg width="72" height="68" viewBox="0 0 72 68" fill="none" xmlns="http://www.w3.org/2000/svg">
<g filter="url(#filter0_f_974_32493)">
<path d="M67.3438 28.9605C67.1822 28.8672 66.999 28.8181 66.8125 28.8181C66.626 28.8181 66.4428 28.8672 66.2812 28.9605L54.0285 36.0293V31.5009C54.0271 30.4188 53.5965 29.3814 52.8313 28.6163C52.066 27.8512 51.0285 27.421 49.9464 27.4198H49.1421V24.8305C49.1423 24.5566 49.0368 24.2932 48.8476 24.0953C48.6583 23.8973 48.3999 23.7801 48.1263 23.768C47.33 23.7318 46.5785 23.3894 46.0287 22.8123C45.4789 22.2352 45.1733 21.4679 45.1758 20.6708C45.1803 19.9099 45.4739 19.1791 45.9971 18.6266C46.1816 18.425 46.2814 18.16 46.2757 17.8867C46.27 17.6135 46.1591 17.3529 45.9663 17.1593L40.794 11.97C40.5991 11.7744 40.3357 11.6624 40.0597 11.6576C39.7836 11.6529 39.5165 11.7558 39.315 11.9445C38.7642 12.4742 38.0274 12.7665 37.2633 12.7584C36.468 12.7642 35.7017 12.4603 35.1265 11.911C34.5514 11.3616 34.2127 10.61 34.1821 9.81527C34.1722 9.54016 34.0559 9.27963 33.8577 9.08857C33.6595 8.89751 33.3949 8.79084 33.1196 8.79102H25.783C25.5077 8.79084 25.2431 8.89751 25.0449 9.08857C24.8467 9.27963 24.7304 9.54016 24.7205 9.81527C24.6894 10.6098 24.3505 11.3611 23.7754 11.9104C23.2004 12.4596 22.4344 12.7637 21.6392 12.7584C20.8811 12.7602 20.1518 12.4681 19.6046 11.9435C19.4032 11.7553 19.1365 11.6528 18.861 11.6576C18.5854 11.6623 18.3225 11.774 18.1277 11.969L12.9438 17.1593C12.7504 17.3528 12.6392 17.6135 12.6333 17.8871C12.6273 18.1606 12.7271 18.4259 12.9119 18.6276C13.4346 19.1805 13.7281 19.9111 13.7332 20.6719C13.7356 21.4695 13.4296 22.2372 12.8791 22.8144C12.3286 23.3917 11.5763 23.7337 10.7794 23.7691C10.5058 23.7811 10.2474 23.8984 10.0582 24.0963C9.86892 24.2943 9.76342 24.5577 9.76369 24.8316V27.4209H8.20713C7.12519 27.422 6.08786 27.8522 5.32262 28.617C4.55738 29.3819 4.12669 30.419 4.125 31.5009V55.1277C4.12641 56.2099 4.55694 57.2474 5.32218 58.0126C6.08742 58.7779 7.12491 59.2084 8.20713 59.2098H49.9464C51.0286 59.2084 52.0661 58.7779 52.8313 58.0126C53.5966 57.2474 54.0271 56.2099 54.0285 55.1277V50.5887L66.2812 57.6692C66.4428 57.7625 66.626 57.8116 66.8125 57.8116C66.999 57.8116 67.1822 57.7625 67.3437 57.6692C67.5053 57.576 67.6394 57.4418 67.7326 57.2803C67.8259 57.1188 67.875 56.9356 67.875 56.7491V29.8806C67.875 29.6941 67.8259 29.5109 67.7326 29.3493C67.6394 29.1878 67.5053 29.0537 67.3438 28.9605ZM11.8887 25.7517C13.0211 25.4675 14.0262 24.8135 14.7447 23.8933C15.4631 22.9731 15.8539 21.8394 15.855 20.6719C15.8516 19.7331 15.5879 18.8136 15.0932 18.0156L18.9756 14.1322C19.7751 14.6304 20.6993 14.8923 21.6414 14.8876C22.8085 14.8891 23.9423 14.499 24.8614 13.7797C25.7804 13.0604 26.4316 12.0535 26.7106 10.9203H32.1952C32.474 12.0534 33.1249 13.0603 34.0438 13.7796C34.9627 14.4989 36.0964 14.8891 37.2633 14.8876C38.2106 14.8938 39.1403 14.6319 39.9451 14.1322L43.8136 18.0135C43.3187 18.8114 43.0547 19.7309 43.0508 20.6698C43.0518 21.8372 43.4426 22.971 44.1611 23.8912C44.8796 24.8114 45.8847 25.4654 47.0171 25.7496V27.4177H39.6507C39.3926 24.892 38.2067 22.5519 36.3224 20.8504C34.4381 19.1489 31.9896 18.207 29.4508 18.207C26.9119 18.207 24.4634 19.1489 22.5791 20.8504C20.6948 22.5519 19.5089 24.892 19.2507 27.4177H11.8887V25.7517ZM37.5119 27.4198H21.3938C21.6522 25.4654 22.612 23.6714 24.0946 22.372C25.5772 21.0725 27.4814 20.3561 29.4529 20.3561C31.4243 20.3561 33.3286 21.0725 34.8112 22.372C36.2937 23.6714 37.2535 25.4654 37.5119 27.4198ZM51.9035 55.1277C51.9029 55.6466 51.6966 56.1441 51.3297 56.511C50.9627 56.8779 50.4653 57.0843 49.9464 57.0848H8.20713C7.68824 57.0843 7.19076 56.8779 6.82385 56.511C6.45694 56.1441 6.25056 55.6466 6.25 55.1277V31.5009C6.25056 30.9821 6.45697 30.4847 6.82391 30.118C7.19086 29.7513 7.68833 29.5451 8.20713 29.5448H49.9464C50.4652 29.5451 50.9626 29.7513 51.3296 30.118C51.6965 30.4847 51.9029 30.9821 51.9035 31.5009V55.1277ZM65.75 54.9088L54.0285 48.1322V38.4826L65.75 31.7208V54.9088Z" fill="#FD8A6D"/>
<path d="M30.9276 32.5527H10.2089C9.92709 32.5527 9.65683 32.6647 9.45758 32.8639C9.25832 33.0632 9.14638 33.3334 9.14638 33.6152V53.5626C9.14638 53.8444 9.25832 54.1147 9.45758 54.3139C9.65683 54.5132 9.92709 54.6251 10.2089 54.6251H30.9276C31.2094 54.6251 31.4797 54.5132 31.6789 54.3139C31.8782 54.1147 31.9901 53.8444 31.9901 53.5626V33.6152C31.9901 33.3334 31.8782 33.0632 31.6789 32.8639C31.4797 32.6647 31.2094 32.5527 30.9276 32.5527ZM29.8651 52.5001H11.2714V34.6777H29.8651V52.5001Z" fill="#FD8A6D"/>
<path d="M15.9347 50.3409C16.257 50.5296 16.6237 50.6291 16.9972 50.6291C17.3707 50.6291 17.7374 50.5296 18.0597 50.3409L26.5692 45.429C26.8923 45.2425 27.1605 44.9742 27.347 44.6512C27.5335 44.3282 27.6317 43.9617 27.6317 43.5887C27.6317 43.2157 27.5335 42.8493 27.347 42.5263C27.1605 42.2032 26.8923 41.935 26.5692 41.7485L18.0597 36.8355C17.7366 36.649 17.3702 36.5508 16.9972 36.5508C16.6242 36.5508 16.2577 36.649 15.9347 36.8355C15.6117 37.022 15.3434 37.2902 15.1569 37.6132C14.9704 37.9363 14.8722 38.3027 14.8722 38.6757V48.5007C14.8699 48.8741 14.9671 49.2415 15.1539 49.5649C15.3406 49.8883 15.6101 50.1562 15.9347 50.3409ZM25.5046 43.5877L16.9972 48.5007V38.6757L25.5046 43.5877Z" fill="#FD8A6D"/>
<path d="M42.0031 45.0626C43.2402 45.0628 44.4496 44.6962 45.4784 44.0091C46.5071 43.3219 47.309 42.3452 47.7826 41.2023C48.2562 40.0595 48.3803 38.8018 48.1391 37.5884C47.898 36.3751 47.3025 35.2604 46.4279 34.3855C45.5532 33.5106 44.4388 32.9147 43.2255 32.6731C42.0122 32.4316 40.7545 32.5552 39.6115 33.0285C38.4685 33.5017 37.4915 34.3032 36.804 35.3317C36.1165 36.3602 35.7495 37.5695 35.7493 38.8066C35.7512 40.4648 36.4107 42.0546 37.583 43.2273C38.7554 44.4001 40.3449 45.0601 42.0031 45.0626ZM42.0031 34.6777C42.82 34.6775 43.6187 34.9196 44.298 35.3733C44.9773 35.827 45.5068 36.472 45.8196 37.2267C46.1323 37.9814 46.2141 38.8119 46.0548 39.6131C45.8955 40.4144 45.5021 41.1503 44.9245 41.728C44.3469 42.3056 43.6109 42.699 42.8096 42.8583C42.0084 43.0176 41.1779 42.9358 40.4232 42.623C39.6685 42.3103 39.0236 41.7808 38.5698 41.1015C38.1161 40.4222 37.874 39.6235 37.8743 38.8066C37.8757 37.712 38.3111 36.6626 39.0851 35.8886C39.8591 35.1146 40.9085 34.6791 42.0031 34.6777Z" fill="#FD8A6D"/>
<path d="M37.5619 50.4472C37.467 50.3451 37.3504 50.2656 37.2208 50.2145C36.9588 50.1082 36.6657 50.1082 36.4038 50.2145C36.1476 50.3274 35.943 50.5321 35.83 50.7882C35.778 50.9197 35.7527 51.0602 35.7556 51.2015C35.7534 51.3397 35.7787 51.4769 35.83 51.6053C35.8814 51.735 35.9613 51.8516 36.0638 51.9463C36.16 52.0459 36.2757 52.1247 36.4036 52.1777C36.5316 52.2307 36.669 52.2568 36.8075 52.2545C36.949 52.2577 37.0896 52.232 37.2208 52.179C37.4775 52.0668 37.6824 51.8619 37.7946 51.6053C37.8467 51.4772 37.8723 51.3398 37.87 51.2015C37.8731 51.0601 37.8475 50.9194 37.7946 50.7882C37.74 50.6604 37.661 50.5445 37.5619 50.4472Z" fill="#FD8A6D"/>
<path d="M42.7564 50.4472C42.6334 50.3205 42.4804 50.2269 42.3115 50.1751C42.1427 50.1233 41.9636 50.1149 41.7906 50.1507C41.7252 50.1667 41.6613 50.188 41.5994 50.2145C41.5333 50.2414 41.4693 50.2734 41.4081 50.3101C41.355 50.3526 41.3019 50.3951 41.2477 50.4472C41.1525 50.5458 41.0768 50.6615 41.0246 50.7882C40.9685 50.9171 40.9396 51.0562 40.9396 51.1968C40.9396 51.3373 40.9685 51.4764 41.0246 51.6053C41.0729 51.734 41.1491 51.8505 41.2477 51.9463C41.348 52.0469 41.4676 52.126 41.5994 52.179C41.7266 52.234 41.8635 52.2629 42.0021 52.264C42.1426 52.2634 42.2817 52.235 42.4112 52.1803C42.5407 52.1255 42.658 52.0457 42.7564 51.9453C42.853 51.8477 42.9289 51.7317 42.9796 51.6042C43.0356 51.4753 43.0646 51.3363 43.0646 51.1957C43.0646 51.0551 43.0356 50.9161 42.9796 50.7872C42.9287 50.66 42.8529 50.5444 42.7564 50.4472Z" fill="#FD8A6D"/>
<path d="M47.9425 50.4466C47.8963 50.3934 47.8426 50.3472 47.7831 50.3095C47.73 50.2766 47.6652 50.2458 47.6025 50.2139C47.5398 50.182 47.475 50.1714 47.3996 50.1501C47.1964 50.1073 46.9848 50.1296 46.795 50.2139C46.6613 50.2625 46.5411 50.3422 46.4444 50.4466C46.3487 50.5472 46.2694 50.6623 46.2096 50.7876C46.1591 50.9162 46.1342 51.0533 46.1363 51.1914C46.1349 51.3313 46.1614 51.4701 46.2143 51.5996C46.2672 51.7291 46.3454 51.8468 46.4444 51.9458C46.5434 52.0419 46.658 52.1206 46.7833 52.1784C46.9146 52.2346 47.056 52.2635 47.1988 52.2634C47.3379 52.2639 47.4757 52.2359 47.6036 52.1811C47.7315 52.1262 47.8469 52.0458 47.9425 51.9447C48.045 51.8499 48.1248 51.7334 48.1763 51.6036C48.2323 51.4747 48.2613 51.3357 48.2613 51.1951C48.2613 51.0545 48.2323 50.9155 48.1763 50.7866C48.1247 50.6572 48.0448 50.541 47.9425 50.4466Z" fill="#FD8A6D"/>
</g>
<path d="M67.3438 28.9605C67.1822 28.8672 66.999 28.8181 66.8125 28.8181C66.626 28.8181 66.4428 28.8672 66.2812 28.9605L54.0285 36.0293V31.5009C54.0271 30.4188 53.5965 29.3814 52.8313 28.6163C52.066 27.8512 51.0285 27.421 49.9464 27.4198H49.1421V24.8305C49.1423 24.5566 49.0368 24.2932 48.8476 24.0953C48.6583 23.8973 48.3999 23.7801 48.1263 23.768C47.33 23.7318 46.5785 23.3894 46.0287 22.8123C45.4789 22.2352 45.1733 21.4679 45.1758 20.6708C45.1803 19.9099 45.4739 19.1791 45.9971 18.6266C46.1816 18.425 46.2814 18.16 46.2757 17.8867C46.27 17.6135 46.1591 17.3529 45.9663 17.1593L40.794 11.97C40.5991 11.7744 40.3357 11.6624 40.0597 11.6576C39.7836 11.6529 39.5165 11.7558 39.315 11.9445C38.7642 12.4742 38.0274 12.7665 37.2633 12.7584C36.468 12.7642 35.7017 12.4603 35.1265 11.911C34.5514 11.3616 34.2127 10.61 34.1821 9.81527C34.1722 9.54016 34.0559 9.27963 33.8577 9.08857C33.6595 8.89751 33.3949 8.79084 33.1196 8.79102H25.783C25.5077 8.79084 25.2431 8.89751 25.0449 9.08857C24.8467 9.27963 24.7304 9.54016 24.7205 9.81527C24.6894 10.6098 24.3505 11.3611 23.7754 11.9104C23.2004 12.4596 22.4344 12.7637 21.6392 12.7584C20.8811 12.7602 20.1518 12.4681 19.6046 11.9435C19.4032 11.7553 19.1365 11.6528 18.861 11.6576C18.5854 11.6623 18.3225 11.774 18.1277 11.969L12.9438 17.1593C12.7504 17.3528 12.6392 17.6135 12.6333 17.8871C12.6273 18.1606 12.7271 18.4259 12.9119 18.6276C13.4346 19.1805 13.7281 19.9111 13.7332 20.6719C13.7356 21.4695 13.4296 22.2372 12.8791 22.8144C12.3286 23.3917 11.5763 23.7337 10.7794 23.7691C10.5058 23.7811 10.2474 23.8984 10.0582 24.0963C9.86892 24.2943 9.76342 24.5577 9.76369 24.8316V27.4209H8.20713C7.12519 27.422 6.08786 27.8522 5.32262 28.617C4.55738 29.3819 4.12669 30.419 4.125 31.5009V55.1277C4.12641 56.2099 4.55694 57.2474 5.32218 58.0126C6.08742 58.7779 7.12491 59.2084 8.20713 59.2098H49.9464C51.0286 59.2084 52.0661 58.7779 52.8313 58.0126C53.5966 57.2474 54.0271 56.2099 54.0285 55.1277V50.5887L66.2812 57.6692C66.4428 57.7625 66.626 57.8116 66.8125 57.8116C66.999 57.8116 67.1822 57.7625 67.3437 57.6692C67.5053 57.576 67.6394 57.4418 67.7326 57.2803C67.8259 57.1188 67.875 56.9356 67.875 56.7491V29.8806C67.875 29.6941 67.8259 29.5109 67.7326 29.3493C67.6394 29.1878 67.5053 29.0537 67.3438 28.9605ZM11.8887 25.7517C13.0211 25.4675 14.0262 24.8135 14.7447 23.8933C15.4631 22.9731 15.8539 21.8394 15.855 20.6719C15.8516 19.7331 15.5879 18.8136 15.0932 18.0156L18.9756 14.1322C19.7751 14.6304 20.6993 14.8923 21.6414 14.8876C22.8085 14.8891 23.9423 14.499 24.8614 13.7797C25.7804 13.0604 26.4316 12.0535 26.7106 10.9203H32.1952C32.474 12.0534 33.1249 13.0603 34.0438 13.7796C34.9627 14.4989 36.0964 14.8891 37.2633 14.8876C38.2106 14.8938 39.1403 14.6319 39.9451 14.1322L43.8136 18.0135C43.3187 18.8114 43.0547 19.7309 43.0508 20.6698C43.0518 21.8372 43.4426 22.971 44.1611 23.8912C44.8796 24.8114 45.8847 25.4654 47.0171 25.7496V27.4177H39.6507C39.3926 24.892 38.2067 22.5519 36.3224 20.8504C34.4381 19.1489 31.9896 18.207 29.4508 18.207C26.9119 18.207 24.4634 19.1489 22.5791 20.8504C20.6948 22.5519 19.5089 24.892 19.2507 27.4177H11.8887V25.7517ZM37.5119 27.4198H21.3938C21.6522 25.4654 22.612 23.6714 24.0946 22.372C25.5772 21.0725 27.4814 20.3561 29.4529 20.3561C31.4243 20.3561 33.3286 21.0725 34.8112 22.372C36.2937 23.6714 37.2535 25.4654 37.5119 27.4198ZM51.9035 55.1277C51.9029 55.6466 51.6966 56.1441 51.3297 56.511C50.9627 56.8779 50.4653 57.0843 49.9464 57.0848H8.20713C7.68824 57.0843 7.19076 56.8779 6.82385 56.511C6.45694 56.1441 6.25056 55.6466 6.25 55.1277V31.5009C6.25056 30.9821 6.45697 30.4847 6.82391 30.118C7.19086 29.7513 7.68833 29.5451 8.20713 29.5448H49.9464C50.4652 29.5451 50.9626 29.7513 51.3296 30.118C51.6965 30.4847 51.9029 30.9821 51.9035 31.5009V55.1277ZM65.75 54.9088L54.0285 48.1322V38.4826L65.75 31.7208V54.9088Z" fill="#FD8A6D"/>
<path d="M30.9276 32.5527H10.2089C9.92709 32.5527 9.65683 32.6647 9.45758 32.8639C9.25832 33.0632 9.14638 33.3334 9.14638 33.6152V53.5626C9.14638 53.8444 9.25832 54.1147 9.45758 54.3139C9.65683 54.5132 9.92709 54.6251 10.2089 54.6251H30.9276C31.2094 54.6251 31.4797 54.5132 31.6789 54.3139C31.8782 54.1147 31.9901 53.8444 31.9901 53.5626V33.6152C31.9901 33.3334 31.8782 33.0632 31.6789 32.8639C31.4797 32.6647 31.2094 32.5527 30.9276 32.5527ZM29.8651 52.5001H11.2714V34.6777H29.8651V52.5001Z" fill="#FD8A6D"/>
<path d="M15.9347 50.3409C16.257 50.5296 16.6237 50.6291 16.9972 50.6291C17.3707 50.6291 17.7374 50.5296 18.0597 50.3409L26.5692 45.429C26.8923 45.2425 27.1605 44.9742 27.347 44.6512C27.5335 44.3282 27.6317 43.9617 27.6317 43.5887C27.6317 43.2157 27.5335 42.8493 27.347 42.5263C27.1605 42.2032 26.8923 41.935 26.5692 41.7485L18.0597 36.8355C17.7366 36.649 17.3702 36.5508 16.9972 36.5508C16.6242 36.5508 16.2577 36.649 15.9347 36.8355C15.6117 37.022 15.3434 37.2902 15.1569 37.6132C14.9704 37.9363 14.8722 38.3027 14.8722 38.6757V48.5007C14.8699 48.8741 14.9671 49.2415 15.1539 49.5649C15.3406 49.8883 15.6101 50.1562 15.9347 50.3409ZM25.5046 43.5877L16.9972 48.5007V38.6757L25.5046 43.5877Z" fill="#FD8A6D"/>
<path d="M42.0031 45.0626C43.2402 45.0628 44.4496 44.6962 45.4784 44.0091C46.5071 43.3219 47.309 42.3452 47.7826 41.2023C48.2562 40.0595 48.3803 38.8018 48.1391 37.5884C47.898 36.3751 47.3025 35.2604 46.4279 34.3855C45.5532 33.5106 44.4388 32.9147 43.2255 32.6731C42.0122 32.4316 40.7545 32.5552 39.6115 33.0285C38.4685 33.5017 37.4915 34.3032 36.804 35.3317C36.1165 36.3602 35.7495 37.5695 35.7493 38.8066C35.7512 40.4648 36.4107 42.0546 37.583 43.2273C38.7554 44.4001 40.3449 45.0601 42.0031 45.0626ZM42.0031 34.6777C42.82 34.6775 43.6187 34.9196 44.298 35.3733C44.9773 35.827 45.5068 36.472 45.8196 37.2267C46.1323 37.9814 46.2141 38.8119 46.0548 39.6131C45.8955 40.4144 45.5021 41.1503 44.9245 41.728C44.3469 42.3056 43.6109 42.699 42.8096 42.8583C42.0084 43.0176 41.1779 42.9358 40.4232 42.623C39.6685 42.3103 39.0236 41.7808 38.5698 41.1015C38.1161 40.4222 37.874 39.6235 37.8743 38.8066C37.8757 37.712 38.3111 36.6626 39.0851 35.8886C39.8591 35.1146 40.9085 34.6791 42.0031 34.6777Z" fill="#FD8A6D"/>
<path d="M37.5619 50.4472C37.467 50.3451 37.3504 50.2656 37.2208 50.2145C36.9588 50.1082 36.6657 50.1082 36.4038 50.2145C36.1476 50.3274 35.943 50.5321 35.83 50.7882C35.778 50.9197 35.7527 51.0602 35.7556 51.2015C35.7534 51.3397 35.7787 51.4769 35.83 51.6053C35.8814 51.735 35.9613 51.8516 36.0638 51.9463C36.16 52.0459 36.2757 52.1247 36.4036 52.1777C36.5316 52.2307 36.669 52.2568 36.8075 52.2545C36.949 52.2577 37.0896 52.232 37.2208 52.179C37.4775 52.0668 37.6824 51.8619 37.7946 51.6053C37.8467 51.4772 37.8723 51.3398 37.87 51.2015C37.8731 51.0601 37.8475 50.9194 37.7946 50.7882C37.74 50.6604 37.661 50.5445 37.5619 50.4472Z" fill="#FD8A6D"/>
<path d="M42.7564 50.4472C42.6334 50.3205 42.4804 50.2269 42.3115 50.1751C42.1427 50.1233 41.9636 50.1149 41.7906 50.1507C41.7252 50.1667 41.6613 50.188 41.5994 50.2145C41.5333 50.2414 41.4693 50.2734 41.4081 50.3101C41.355 50.3526 41.3019 50.3951 41.2477 50.4472C41.1525 50.5458 41.0768 50.6615 41.0246 50.7882C40.9685 50.9171 40.9396 51.0562 40.9396 51.1968C40.9396 51.3373 40.9685 51.4764 41.0246 51.6053C41.0729 51.734 41.1491 51.8505 41.2477 51.9463C41.348 52.0469 41.4676 52.126 41.5994 52.179C41.7266 52.234 41.8635 52.2629 42.0021 52.264C42.1426 52.2634 42.2817 52.235 42.4112 52.1803C42.5407 52.1255 42.658 52.0457 42.7564 51.9453C42.853 51.8477 42.9289 51.7317 42.9796 51.6042C43.0356 51.4753 43.0646 51.3363 43.0646 51.1957C43.0646 51.0551 43.0356 50.9161 42.9796 50.7872C42.9287 50.66 42.8529 50.5444 42.7564 50.4472Z" fill="#FD8A6D"/>
<path d="M47.9425 50.4466C47.8963 50.3934 47.8426 50.3472 47.7831 50.3095C47.73 50.2766 47.6652 50.2458 47.6025 50.2139C47.5398 50.182 47.475 50.1714 47.3996 50.1501C47.1964 50.1073 46.9848 50.1296 46.795 50.2139C46.6613 50.2625 46.5411 50.3422 46.4444 50.4466C46.3487 50.5472 46.2694 50.6623 46.2096 50.7876C46.1591 50.9162 46.1342 51.0533 46.1363 51.1914C46.1349 51.3313 46.1614 51.4701 46.2143 51.5996C46.2672 51.7291 46.3454 51.8468 46.4444 51.9458C46.5434 52.0419 46.658 52.1206 46.7833 52.1784C46.9146 52.2346 47.056 52.2635 47.1988 52.2634C47.3379 52.2639 47.4757 52.2359 47.6036 52.1811C47.7315 52.1262 47.8469 52.0458 47.9425 51.9447C48.045 51.8499 48.1248 51.7334 48.1763 51.6036C48.2323 51.4747 48.2613 51.3357 48.2613 51.1951C48.2613 51.0545 48.2323 50.9155 48.1763 50.7866C48.1247 50.6572 48.0448 50.541 47.9425 50.4466Z" fill="#FD8A6D"/>
<defs>
<filter id="filter0_f_974_32493" x="-2" y="-4" width="76" height="76" filterUnits="userSpaceOnUse" color-interpolation-filters="sRGB">
<feFlood flood-opacity="0" result="BackgroundImageFix"/>
<feBlend mode="normal" in="SourceGraphic" in2="BackgroundImageFix" result="shape"/>
<feGaussianBlur stdDeviation="2" result="effect1_foregroundBlur_974_32493"/>
</filter>
</defs>
</svg>
