<svg width="74" height="70" viewBox="0 0 74 70" fill="none" xmlns="http://www.w3.org/2000/svg">
<g filter="url(#filter0_f_974_32422)">
<path fill-rule="evenodd" clip-rule="evenodd" d="M22.0576 54.7544H9.06465C6.24305 54.7544 3.93332 52.4447 3.93332 49.6231V21.669C3.93332 18.8474 6.24305 16.5376 9.06465 16.5376H13.8245C14.4133 16.5376 14.8912 17.0156 14.8912 17.6043C14.8912 18.193 14.4133 18.671 13.8245 18.671H9.06465C7.41612 18.671 6.06665 20.0204 6.06665 21.669V49.6231C6.06665 51.2716 7.41612 52.6211 9.06465 52.6211H40.3553C40.944 52.6211 41.422 53.0991 41.422 53.6878C41.422 54.1159 41.1692 54.4855 40.8048 54.6552V59.1779C41.1692 59.3476 41.422 59.7172 41.422 60.1454C41.422 60.734 40.944 61.212 40.3553 61.212H16.9393C15.6763 61.212 14.5404 61.9028 14.5404 62.9114V64.6142H49.3886C49.9773 64.6142 50.4553 65.0922 50.4553 65.6808C50.4553 66.2696 49.9773 66.7475 49.3886 66.7475H13.4737C12.8847 66.7475 12.4071 66.27 12.4071 65.6808V62.9114C12.4071 60.8751 14.3893 59.0787 16.9393 59.0787H22.0576V54.7544ZM38.6715 54.7544H24.1909V59.0787H38.6715V54.7544ZM36.1739 35.377C36.1432 35.4348 36.112 35.4924 36.0804 35.5498L36.7893 37.1503C36.9678 37.5534 36.88 38.0248 36.5682 38.3366L34.0972 40.8076C33.7855 41.1194 33.314 41.2072 32.9109 41.0287C32.9109 41.0287 31.3121 40.3206 31.3123 40.3204C30.5224 40.7578 29.6847 41.1043 28.8165 41.3543L28.1888 42.9851C28.0304 43.397 27.6347 43.6687 27.1933 43.6687H23.6979C23.2567 43.6687 22.8609 43.397 22.7024 42.9851C22.7024 42.9851 22.0748 41.3544 22.0749 41.3544C21.2052 41.1039 20.3687 40.7559 19.5773 40.3198L17.9768 41.0287C17.5737 41.2072 17.1023 41.1194 16.7905 40.8076L14.3195 38.3366C14.0073 38.0244 13.9197 37.5523 14.0991 37.149C14.0991 37.149 14.8097 35.5507 14.8097 35.5508C14.3727 34.7614 14.0261 33.9242 13.7744 33.0564L12.142 32.4282C11.7303 32.2698 11.4585 31.874 11.4585 31.4327V27.9372C11.4585 27.496 11.7303 27.1003 12.142 26.9418L13.774 26.3138C14.0259 25.444 14.3725 24.6076 14.81 23.8164L14.0991 22.2175C13.9197 21.8142 14.0073 21.342 14.3195 21.0299L16.1117 19.2378V5.96071C16.1117 4.47231 17.3301 3.25391 18.8185 3.25391H53.2036C54.6924 3.25391 55.9083 4.47191 55.9083 5.96071V13.4843H66.9545C68.664 13.4843 70.0667 14.887 70.0667 16.6076V59.9439C70.0667 61.6647 68.664 63.0674 66.9545 63.0674H45.2108C43.4976 63.0674 42.0958 61.6643 42.0958 59.9439V35.377H36.1739ZM18.2451 18.4571C18.7 18.6594 19.5771 19.0494 19.5769 19.0494C20.3681 18.612 21.2043 18.2656 22.0719 18.0156L22.7028 16.3806C22.8615 15.9691 23.2569 15.6979 23.6979 15.6979H27.1933C27.6348 15.6979 28.0307 15.9699 28.1891 16.3819L28.8168 18.0159C29.6841 18.2659 30.5199 18.6122 31.3107 19.0494L32.9096 18.3384C33.3129 18.1591 33.7851 18.2467 34.0972 18.5588L36.5682 21.0299C36.88 21.3416 36.9678 21.8131 36.7893 22.2162C36.7893 22.2162 36.0809 23.8156 36.0808 23.8156C36.5185 24.6072 36.8652 25.4442 37.1153 26.3143L38.7457 26.9418C39.1576 27.1003 39.4293 27.496 39.4293 27.9372V31.4327C39.4293 31.874 39.1576 32.2698 38.7457 32.4282C38.7457 32.4282 37.1147 33.056 37.1147 33.0559C37.0965 33.1186 37.0779 33.1812 37.0588 33.2436H42.0958V16.6076C42.0958 14.8874 43.4976 13.4843 45.2108 13.4843H53.7749V11.2396H18.2451V18.4571ZM53.7749 9.10631V5.96071C53.7749 5.64577 53.5185 5.38724 53.2036 5.38724H18.8185C18.5032 5.38724 18.2451 5.64537 18.2451 5.96071V9.10631H53.7749ZM27.0213 19.2908L26.4605 17.8312H24.4296L23.8659 19.2923C23.7393 19.6202 23.4593 19.8647 23.1173 19.946C22.0873 20.1908 21.1052 20.5978 20.2024 21.154C19.9027 21.3387 19.5311 21.3636 19.2095 21.2206L17.7809 20.5854L16.346 22.0203L16.9812 23.4488C17.1243 23.7704 17.0993 24.142 16.9147 24.4418C16.3579 25.3454 15.9508 26.3284 15.7025 27.3626C15.6207 27.7038 15.3761 27.983 15.0485 28.1091L13.5919 28.6698V30.7003L15.0485 31.261C15.3759 31.387 15.6203 31.6658 15.7024 32.0068C15.9505 33.0372 16.3572 34.0234 16.9137 34.9234C17.0992 35.2232 17.1245 35.5955 16.9812 35.9178L16.346 37.3462L17.7817 38.7819L19.2108 38.1488C19.5313 38.0068 19.9011 38.0315 20.2 38.2146C21.1035 38.7682 22.0863 39.1788 23.1201 39.4238C23.4628 39.505 23.7432 39.75 23.8697 40.0786L24.4304 41.5354H26.4609L27.0216 40.0786C27.148 39.7503 27.4281 39.5054 27.7704 39.424C28.7999 39.1794 29.7848 38.773 30.684 38.217C30.9835 38.0318 31.3551 38.0063 31.6769 38.1488L33.106 38.7819L34.5425 37.3454L33.9095 35.9163C33.7675 35.5959 33.7921 35.226 33.9752 34.9271C34.5288 34.0235 34.9396 33.0406 35.1847 32.0098C35.266 31.6675 35.5109 31.3874 35.8393 31.261L37.296 30.7003V28.6698L35.8393 28.1091C35.5107 27.9826 35.2656 27.7022 35.1845 27.3595C34.9397 26.3266 34.5329 25.3444 33.9767 24.4418C33.7922 24.1424 33.767 23.7715 33.9095 23.4502L34.5425 22.0211L33.1068 20.5854L31.6784 21.2206C31.3567 21.3636 30.9852 21.3387 30.6855 21.154C29.7827 20.5978 28.8004 20.1908 27.7704 19.946C27.428 19.8646 27.1476 19.6195 27.0213 19.2908ZM25.4438 22.5198C29.4018 22.5198 32.6109 25.7254 32.6109 29.6832C32.6109 33.641 29.4016 36.8502 25.4438 36.8502C21.486 36.8502 18.2804 33.6412 18.2804 29.6832C18.2804 25.7251 21.4857 22.5198 25.4438 22.5198ZM25.4438 24.6531C22.6645 24.6531 20.4137 26.9039 20.4137 29.6832C20.4137 32.4628 22.6644 34.7168 25.4438 34.7168C28.2236 34.7168 30.4776 32.463 30.4776 29.6832C30.4776 26.9038 28.2234 24.6531 25.4438 24.6531ZM21.636 8.20351C21.1087 8.20351 20.6783 7.77511 20.6783 7.24777C20.6783 6.72044 21.1087 6.29004 21.636 6.29004C22.1633 6.29004 22.5939 6.72044 22.5939 7.24777C22.5939 7.77511 22.1633 8.20351 21.636 8.20351ZM25.3124 8.20351C24.7851 8.20351 24.3545 7.77511 24.3545 7.24777C24.3545 6.72044 24.7851 6.29004 25.3124 6.29004C25.8397 6.29004 26.268 6.72044 26.268 7.24777C26.268 7.77511 25.8397 8.20351 25.3124 8.20351ZM28.9865 8.20351C28.4592 8.20351 28.0288 7.77511 28.0288 7.24777C28.0288 6.72044 28.4592 6.29004 28.9865 6.29004C29.5139 6.29004 29.9444 6.72044 29.9444 7.24777C29.9444 7.77511 29.5139 8.20351 28.9865 8.20351ZM47.6997 15.6176H45.2108C44.6693 15.6176 44.2292 16.0639 44.2292 16.6076V59.9439C44.2292 60.4876 44.6693 60.934 45.2108 60.934H66.9545C67.4942 60.934 67.9333 60.4872 67.9333 59.9439V16.6076C67.9333 16.0643 67.4942 15.6176 66.9545 15.6176H64.4628L63.4842 17.465C63.0909 18.2075 62.3195 18.6718 61.4793 18.6718H50.6833C49.843 18.6718 49.0716 18.2075 48.6782 17.465L47.6997 15.6176ZM62.0486 15.6176H50.1138L50.5634 16.4664C50.5869 16.5107 50.633 16.5384 50.6833 16.5384H61.4793C61.5294 16.5384 61.5756 16.5107 61.599 16.4663L62.0486 15.6176ZM49.7999 38.236C49.3836 37.8198 49.3836 37.1439 49.7999 36.7276C50.2161 36.3114 50.892 36.3114 51.3083 36.7276L54.7681 40.1875L60.8543 34.1014C61.2705 33.6851 61.9464 33.6851 62.3628 34.1014C62.779 34.5176 62.779 35.1936 62.3628 35.6099L55.5224 42.4502C55.1059 42.8667 54.4305 42.8667 54.014 42.4502L49.7999 38.236ZM53.3814 58.2646C52.7928 58.2646 52.3148 57.7867 52.3148 57.1979C52.3148 56.6092 52.7928 56.1312 53.3814 56.1312H58.7838C59.3727 56.1312 59.8505 56.6092 59.8505 57.1979C59.8505 57.7867 59.3727 58.2646 58.7838 58.2646H53.3814ZM9.46399 22.0719V45.776H40.3553C40.944 45.776 41.422 46.254 41.422 46.8427C41.422 47.4315 40.944 47.9094 40.3553 47.9094H8.39732C7.80825 47.9094 7.33065 47.4319 7.33065 46.8427V21.5686C7.33065 20.6672 8.06292 19.9386 8.96425 19.9386H11.3809C11.9696 19.9386 12.4476 20.4166 12.4476 21.0052C12.4476 21.594 11.9696 22.0719 11.3809 22.0719H9.46399Z" fill="#FD8A6D"/>
</g>
<path fill-rule="evenodd" clip-rule="evenodd" d="M22.0576 54.7544H9.06465C6.24305 54.7544 3.93332 52.4447 3.93332 49.6231V21.669C3.93332 18.8474 6.24305 16.5376 9.06465 16.5376H13.8245C14.4133 16.5376 14.8912 17.0156 14.8912 17.6043C14.8912 18.193 14.4133 18.671 13.8245 18.671H9.06465C7.41612 18.671 6.06665 20.0204 6.06665 21.669V49.6231C6.06665 51.2716 7.41612 52.6211 9.06465 52.6211H40.3553C40.944 52.6211 41.422 53.0991 41.422 53.6878C41.422 54.1159 41.1692 54.4855 40.8048 54.6552V59.1779C41.1692 59.3476 41.422 59.7172 41.422 60.1454C41.422 60.734 40.944 61.212 40.3553 61.212H16.9393C15.6763 61.212 14.5404 61.9028 14.5404 62.9114V64.6142H49.3886C49.9773 64.6142 50.4553 65.0922 50.4553 65.6808C50.4553 66.2696 49.9773 66.7475 49.3886 66.7475H13.4737C12.8847 66.7475 12.4071 66.27 12.4071 65.6808V62.9114C12.4071 60.8751 14.3893 59.0787 16.9393 59.0787H22.0576V54.7544ZM38.6715 54.7544H24.1909V59.0787H38.6715V54.7544ZM36.1739 35.377C36.1432 35.4348 36.112 35.4924 36.0804 35.5498L36.7893 37.1503C36.9678 37.5534 36.88 38.0248 36.5682 38.3366L34.0972 40.8076C33.7855 41.1194 33.314 41.2072 32.9109 41.0287C32.9109 41.0287 31.3121 40.3206 31.3123 40.3204C30.5224 40.7578 29.6847 41.1043 28.8165 41.3543L28.1888 42.9851C28.0304 43.397 27.6347 43.6687 27.1933 43.6687H23.6979C23.2567 43.6687 22.8609 43.397 22.7024 42.9851C22.7024 42.9851 22.0748 41.3544 22.0749 41.3544C21.2052 41.1039 20.3687 40.7559 19.5773 40.3198L17.9768 41.0287C17.5737 41.2072 17.1023 41.1194 16.7905 40.8076L14.3195 38.3366C14.0073 38.0244 13.9197 37.5523 14.0991 37.149C14.0991 37.149 14.8097 35.5507 14.8097 35.5508C14.3727 34.7614 14.0261 33.9242 13.7744 33.0564L12.142 32.4282C11.7303 32.2698 11.4585 31.874 11.4585 31.4327V27.9372C11.4585 27.496 11.7303 27.1003 12.142 26.9418L13.774 26.3138C14.0259 25.444 14.3725 24.6076 14.81 23.8164L14.0991 22.2175C13.9197 21.8142 14.0073 21.342 14.3195 21.0299L16.1117 19.2378V5.96071C16.1117 4.47231 17.3301 3.25391 18.8185 3.25391H53.2036C54.6924 3.25391 55.9083 4.47191 55.9083 5.96071V13.4843H66.9545C68.664 13.4843 70.0667 14.887 70.0667 16.6076V59.9439C70.0667 61.6647 68.664 63.0674 66.9545 63.0674H45.2108C43.4976 63.0674 42.0958 61.6643 42.0958 59.9439V35.377H36.1739ZM18.2451 18.4571C18.7 18.6594 19.5771 19.0494 19.5769 19.0494C20.3681 18.612 21.2043 18.2656 22.0719 18.0156L22.7028 16.3806C22.8615 15.9691 23.2569 15.6979 23.6979 15.6979H27.1933C27.6348 15.6979 28.0307 15.9699 28.1891 16.3819L28.8168 18.0159C29.6841 18.2659 30.5199 18.6122 31.3107 19.0494L32.9096 18.3384C33.3129 18.1591 33.7851 18.2467 34.0972 18.5588L36.5682 21.0299C36.88 21.3416 36.9678 21.8131 36.7893 22.2162C36.7893 22.2162 36.0809 23.8156 36.0808 23.8156C36.5185 24.6072 36.8652 25.4442 37.1153 26.3143L38.7457 26.9418C39.1576 27.1003 39.4293 27.496 39.4293 27.9372V31.4327C39.4293 31.874 39.1576 32.2698 38.7457 32.4282C38.7457 32.4282 37.1147 33.056 37.1147 33.0559C37.0965 33.1186 37.0779 33.1812 37.0588 33.2436H42.0958V16.6076C42.0958 14.8874 43.4976 13.4843 45.2108 13.4843H53.7749V11.2396H18.2451V18.4571ZM53.7749 9.10631V5.96071C53.7749 5.64577 53.5185 5.38724 53.2036 5.38724H18.8185C18.5032 5.38724 18.2451 5.64537 18.2451 5.96071V9.10631H53.7749ZM27.0213 19.2908L26.4605 17.8312H24.4296L23.8659 19.2923C23.7393 19.6202 23.4593 19.8647 23.1173 19.946C22.0873 20.1908 21.1052 20.5978 20.2024 21.154C19.9027 21.3387 19.5311 21.3636 19.2095 21.2206L17.7809 20.5854L16.346 22.0203L16.9812 23.4488C17.1243 23.7704 17.0993 24.142 16.9147 24.4418C16.3579 25.3454 15.9508 26.3284 15.7025 27.3626C15.6207 27.7038 15.3761 27.983 15.0485 28.1091L13.5919 28.6698V30.7003L15.0485 31.261C15.3759 31.387 15.6203 31.6658 15.7024 32.0068C15.9505 33.0372 16.3572 34.0234 16.9137 34.9234C17.0992 35.2232 17.1245 35.5955 16.9812 35.9178L16.346 37.3462L17.7817 38.7819L19.2108 38.1488C19.5313 38.0068 19.9011 38.0315 20.2 38.2146C21.1035 38.7682 22.0863 39.1788 23.1201 39.4238C23.4628 39.505 23.7432 39.75 23.8697 40.0786L24.4304 41.5354H26.4609L27.0216 40.0786C27.148 39.7503 27.4281 39.5054 27.7704 39.424C28.7999 39.1794 29.7848 38.773 30.684 38.217C30.9835 38.0318 31.3551 38.0063 31.6769 38.1488L33.106 38.7819L34.5425 37.3454L33.9095 35.9163C33.7675 35.5959 33.7921 35.226 33.9752 34.9271C34.5288 34.0235 34.9396 33.0406 35.1847 32.0098C35.266 31.6675 35.5109 31.3874 35.8393 31.261L37.296 30.7003V28.6698L35.8393 28.1091C35.5107 27.9826 35.2656 27.7022 35.1845 27.3595C34.9397 26.3266 34.5329 25.3444 33.9767 24.4418C33.7922 24.1424 33.767 23.7715 33.9095 23.4502L34.5425 22.0211L33.1068 20.5854L31.6784 21.2206C31.3567 21.3636 30.9852 21.3387 30.6855 21.154C29.7827 20.5978 28.8004 20.1908 27.7704 19.946C27.428 19.8646 27.1476 19.6195 27.0213 19.2908ZM25.4438 22.5198C29.4018 22.5198 32.6109 25.7254 32.6109 29.6832C32.6109 33.641 29.4016 36.8502 25.4438 36.8502C21.486 36.8502 18.2804 33.6412 18.2804 29.6832C18.2804 25.7251 21.4857 22.5198 25.4438 22.5198ZM25.4438 24.6531C22.6645 24.6531 20.4137 26.9039 20.4137 29.6832C20.4137 32.4628 22.6644 34.7168 25.4438 34.7168C28.2236 34.7168 30.4776 32.463 30.4776 29.6832C30.4776 26.9038 28.2234 24.6531 25.4438 24.6531ZM21.636 8.20351C21.1087 8.20351 20.6783 7.77511 20.6783 7.24777C20.6783 6.72044 21.1087 6.29004 21.636 6.29004C22.1633 6.29004 22.5939 6.72044 22.5939 7.24777C22.5939 7.77511 22.1633 8.20351 21.636 8.20351ZM25.3124 8.20351C24.7851 8.20351 24.3545 7.77511 24.3545 7.24777C24.3545 6.72044 24.7851 6.29004 25.3124 6.29004C25.8397 6.29004 26.268 6.72044 26.268 7.24777C26.268 7.77511 25.8397 8.20351 25.3124 8.20351ZM28.9865 8.20351C28.4592 8.20351 28.0288 7.77511 28.0288 7.24777C28.0288 6.72044 28.4592 6.29004 28.9865 6.29004C29.5139 6.29004 29.9444 6.72044 29.9444 7.24777C29.9444 7.77511 29.5139 8.20351 28.9865 8.20351ZM47.6997 15.6176H45.2108C44.6693 15.6176 44.2292 16.0639 44.2292 16.6076V59.9439C44.2292 60.4876 44.6693 60.934 45.2108 60.934H66.9545C67.4942 60.934 67.9333 60.4872 67.9333 59.9439V16.6076C67.9333 16.0643 67.4942 15.6176 66.9545 15.6176H64.4628L63.4842 17.465C63.0909 18.2075 62.3195 18.6718 61.4793 18.6718H50.6833C49.843 18.6718 49.0716 18.2075 48.6782 17.465L47.6997 15.6176ZM62.0486 15.6176H50.1138L50.5634 16.4664C50.5869 16.5107 50.633 16.5384 50.6833 16.5384H61.4793C61.5294 16.5384 61.5756 16.5107 61.599 16.4663L62.0486 15.6176ZM49.7999 38.236C49.3836 37.8198 49.3836 37.1439 49.7999 36.7276C50.2161 36.3114 50.892 36.3114 51.3083 36.7276L54.7681 40.1875L60.8543 34.1014C61.2705 33.6851 61.9464 33.6851 62.3628 34.1014C62.779 34.5176 62.779 35.1936 62.3628 35.6099L55.5224 42.4502C55.1059 42.8667 54.4305 42.8667 54.014 42.4502L49.7999 38.236ZM53.3814 58.2646C52.7928 58.2646 52.3148 57.7867 52.3148 57.1979C52.3148 56.6092 52.7928 56.1312 53.3814 56.1312H58.7838C59.3727 56.1312 59.8505 56.6092 59.8505 57.1979C59.8505 57.7867 59.3727 58.2646 58.7838 58.2646H53.3814ZM9.46399 22.0719V45.776H40.3553C40.944 45.776 41.422 46.254 41.422 46.8427C41.422 47.4315 40.944 47.9094 40.3553 47.9094H8.39732C7.80825 47.9094 7.33065 47.4319 7.33065 46.8427V21.5686C7.33065 20.6672 8.06292 19.9386 8.96425 19.9386H11.3809C11.9696 19.9386 12.4476 20.4166 12.4476 21.0052C12.4476 21.594 11.9696 22.0719 11.3809 22.0719H9.46399Z" fill="#FD8A6D"/>
<defs>
<filter id="filter0_f_974_32422" x="-0.0999999" y="-2.1" width="74.2" height="74.2" filterUnits="userSpaceOnUse" color-interpolation-filters="sRGB">
<feFlood flood-opacity="0" result="BackgroundImageFix"/>
<feBlend mode="normal" in="SourceGraphic" in2="BackgroundImageFix" result="shape"/>
<feGaussianBlur stdDeviation="1.55" result="effect1_foregroundBlur_974_32422"/>
</filter>
</defs>
</svg>
